<svg width="114" height="21" viewBox="0 0 114 21" fill="none" xmlns="http://www.w3.org/2000/svg">
<path d="M36.384 20.1377C36.3629 20.1377 36.3436 20.129 36.3279 20.1132C36.3156 20.101 36.3086 20.0834 36.3086 20.0624V15.4599C36.3086 15.4389 36.3156 15.4213 36.3279 15.4091C36.3436 15.3916 36.3629 15.3828 36.384 15.3828H36.9518C36.9728 15.3828 36.9886 15.3916 37.0026 15.4091C37.0184 15.4213 37.0271 15.4389 37.0271 15.4599V19.4757H38.6605C38.7113 19.4757 38.7376 19.5037 38.7376 19.558V20.0624C38.7376 20.0834 38.7288 20.0992 38.7113 20.1132C38.699 20.129 38.6815 20.1377 38.6605 20.1377H36.384Z" fill="#333333" fill-opacity="0.6"/>
<path d="M42.7011 20.136C42.6713 20.136 42.6503 20.1325 42.638 20.1237C42.6258 20.1202 42.6118 20.1027 42.5995 20.0729L42.1456 18.9381H40.0881L39.6342 20.0729C39.6255 20.1027 39.615 20.1185 39.6027 20.1237C39.5904 20.1325 39.5694 20.136 39.5396 20.136H38.9595C38.8842 20.136 38.8596 20.1062 38.8842 20.0484L40.7261 15.4529C40.7383 15.4178 40.7471 15.4003 40.7506 15.3951C40.7594 15.3881 40.7839 15.3828 40.826 15.3828H41.413C41.4498 15.3828 41.4744 15.3881 41.4814 15.3951C41.4902 15.3986 41.5007 15.4178 41.5129 15.4529L43.3548 20.0484C43.3759 20.1062 43.3496 20.136 43.2777 20.136H42.6976H42.7011ZM40.3475 18.2761H41.881L41.1169 16.3338L40.3475 18.2761Z" fill="#333333" fill-opacity="0.6"/>
<path d="M48.0732 20.0694C48.0644 20.1027 48.0539 20.122 48.0416 20.1255C48.0294 20.1342 48.0066 20.1377 47.9733 20.1377H47.3739C47.3406 20.1377 47.3179 20.1342 47.3038 20.1255C47.2916 20.122 47.2811 20.1027 47.2723 20.0694L46.2243 16.4879L45.1763 20.0694C45.1675 20.1027 45.157 20.122 45.1447 20.1255C45.136 20.1342 45.1132 20.1377 45.0746 20.1377H44.4753C44.442 20.1377 44.4174 20.1342 44.4052 20.1255C44.3929 20.122 44.3824 20.1027 44.3736 20.0694L43.0417 15.4721C43.033 15.4424 43.033 15.4213 43.0417 15.4091C43.0487 15.3916 43.082 15.3828 43.1364 15.3828H43.6604C43.6902 15.3828 43.7112 15.3881 43.7235 15.3951C43.7357 15.3986 43.7462 15.4161 43.755 15.4459L44.803 18.9959L45.8247 15.4459C45.8335 15.4161 45.844 15.3986 45.8563 15.3951C45.8738 15.3881 45.8966 15.3828 45.9264 15.3828H46.5187C46.5485 15.3828 46.5695 15.3881 46.5818 15.3951C46.5976 15.3986 46.6116 15.4161 46.6186 15.4459L47.6403 18.9959L48.6883 15.4459C48.6953 15.4161 48.7076 15.3986 48.7199 15.3951C48.7321 15.3881 48.7549 15.3828 48.783 15.3828H49.307C49.3613 15.3828 49.3928 15.3916 49.4016 15.4091C49.4086 15.4213 49.4086 15.4424 49.4016 15.4721L48.0697 20.0694H48.0732Z" fill="#333333" fill-opacity="0.6"/>
<path d="M50.7186 16.0501V17.3566H52.2836C52.3379 17.3566 52.3659 17.3811 52.3659 17.4319V17.9433C52.3659 17.9941 52.3379 18.0204 52.2836 18.0204H50.7186V20.0432C50.7186 20.1062 50.6888 20.1377 50.6292 20.1377H50.1122C50.0491 20.1377 50.0176 20.1062 50.0176 20.0432V15.4967C50.0176 15.4511 50.0263 15.4213 50.0421 15.4091C50.0596 15.3916 50.0842 15.3828 50.1175 15.3828H52.3694C52.3905 15.3828 52.408 15.3916 52.4203 15.4091C52.4378 15.4213 52.4448 15.4389 52.4448 15.4599V15.9643C52.4448 16.0238 52.4203 16.0518 52.3694 16.0518H50.7168L50.7186 16.0501Z" fill="#333333" fill-opacity="0.6"/>
<path d="M53.8335 20.0554C53.8335 20.1097 53.8055 20.1377 53.7511 20.1377H53.1763C53.122 20.1377 53.0957 20.1115 53.0957 20.0554V15.4651C53.0957 15.4108 53.122 15.3828 53.1763 15.3828H53.7511C53.8055 15.3828 53.8335 15.4108 53.8335 15.4651V20.0554Z" fill="#333333" fill-opacity="0.6"/>
<path d="M57.3378 20.1395C57.2922 20.1395 57.2571 20.136 57.2361 20.1272C57.2203 20.1237 57.2011 20.1062 57.18 20.0764L56.2144 18.2095H55.4959V20.0572C55.4959 20.1115 55.4678 20.1395 55.4135 20.1395H54.8527C54.8019 20.1395 54.7773 20.1132 54.7773 20.0572V15.4599C54.7773 15.4389 54.7844 15.4213 54.7966 15.4091C54.8141 15.3916 54.8317 15.3828 54.8527 15.3828H56.1268C56.5929 15.3828 56.9645 15.4967 57.2361 15.7243C57.5095 15.9503 57.6462 16.304 57.6462 16.7839C57.6462 17.0904 57.5796 17.3513 57.4447 17.5668C57.3097 17.7769 57.1257 17.9363 56.8891 18.0449L57.9424 20.0502C57.9774 20.108 57.9511 20.1377 57.867 20.1377H57.336L57.3378 20.1395ZM55.4959 16.0466V17.5545H56.0146C56.2915 17.5545 56.5123 17.4949 56.6771 17.3776C56.8418 17.255 56.9224 17.0571 56.9224 16.7786C56.9224 16.5387 56.8576 16.3583 56.7279 16.2357C56.6017 16.1096 56.4317 16.0466 56.2162 16.0466H55.4976H55.4959Z" fill="#333333" fill-opacity="0.6"/>
<path d="M62.9351 20.1377C62.9018 20.1377 62.8808 20.1307 62.872 20.1185C62.8633 20.1097 62.8598 20.0922 62.8598 20.0677V16.6438L61.4911 20.0554C61.4823 20.0764 61.4718 20.0887 61.4595 20.0922C61.4525 20.0957 61.4262 20.0975 61.3842 20.0975H60.8794C60.8374 20.0975 60.8111 20.0975 60.7988 20.0922C60.7901 20.0887 60.7813 20.0747 60.7725 20.0554L59.4038 16.6438V20.0677C59.4038 20.0922 59.4003 20.1097 59.3916 20.1185C59.3828 20.1307 59.3618 20.1377 59.3285 20.1377H58.7414C58.6906 20.1377 58.666 20.115 58.666 20.0694V15.5159C58.666 15.4564 58.673 15.4213 58.6853 15.4091C58.6976 15.3916 58.7379 15.3828 58.8062 15.3828H59.5563C59.5861 15.3828 59.6036 15.3898 59.6071 15.4021C59.6159 15.4091 59.6264 15.4283 59.6387 15.4581L61.1336 19.1657L62.6284 15.4581C62.6407 15.4283 62.6495 15.4091 62.6547 15.4021C62.6635 15.3898 62.681 15.3828 62.7108 15.3828H63.4626C63.5292 15.3828 63.5713 15.3916 63.5818 15.4091C63.5941 15.4213 63.6011 15.4564 63.6011 15.5159V20.0694C63.6011 20.115 63.5765 20.1377 63.5257 20.1377H62.9386H62.9351Z" fill="#333333" fill-opacity="0.6"/>
<path d="M70.248 19.9887C70.1727 20.0273 70.0798 20.0588 69.9711 20.0833C69.8625 20.1131 69.7415 20.1376 69.6118 20.1604C69.4857 20.1814 69.3542 20.1954 69.2193 20.2042C69.0896 20.2164 68.9652 20.2234 68.8477 20.2234C68.499 20.2234 68.1748 20.1691 67.8769 20.0588C67.5824 19.9502 67.3283 19.7891 67.1128 19.5789C66.899 19.3688 66.729 19.1113 66.608 18.8031C66.4854 18.4966 66.4258 18.1481 66.4258 17.7575C66.4258 17.4002 66.4819 17.0727 66.5958 16.7733C66.7097 16.472 66.8709 16.2111 67.0812 15.9904C67.2915 15.7732 67.5456 15.6016 67.8453 15.479C68.1432 15.3564 68.4797 15.2969 68.8548 15.2969C69.1071 15.2969 69.3332 15.3109 69.5295 15.3407C69.7275 15.3652 69.915 15.4055 70.092 15.4597C70.1394 15.472 70.1656 15.486 70.1744 15.5035C70.1832 15.5158 70.1849 15.5298 70.1814 15.5473L70.1061 16.0832C70.1026 16.113 70.092 16.134 70.0745 16.1463C70.057 16.1585 70.0254 16.1568 69.9799 16.1393C69.7818 16.0762 69.5943 16.0324 69.4173 16.0079C69.2403 15.9782 69.051 15.9641 68.8495 15.9641C68.5971 15.9641 68.3676 16.0079 68.1608 16.0955C67.954 16.1796 67.7787 16.3022 67.6298 16.4615C67.4825 16.6174 67.3669 16.8048 67.2828 17.0237C67.2039 17.2426 67.1636 17.4861 67.1636 17.7558C67.1636 18.0447 67.2039 18.304 67.2828 18.5316C67.3669 18.754 67.4825 18.9432 67.6298 19.0991C67.7805 19.2497 67.9592 19.367 68.166 19.4458C68.3728 19.5211 68.5989 19.5597 68.8477 19.5597C69.037 19.5597 69.2018 19.5509 69.3402 19.5351C69.4787 19.5194 69.5821 19.4931 69.6486 19.4598V18.1919H68.6077C68.5831 18.1919 68.5621 18.1849 68.5446 18.1726C68.5323 18.1551 68.5253 18.1376 68.5253 18.1166V17.6122C68.5253 17.5876 68.5341 17.5649 68.5498 17.5491C68.5709 17.5316 68.5919 17.5228 68.6129 17.5228H70.2287C70.2918 17.5228 70.3321 17.5334 70.3479 17.5544C70.3654 17.5754 70.3742 17.6174 70.3742 17.6805V19.7611C70.3742 19.8241 70.3619 19.8714 70.3356 19.9064C70.3111 19.9397 70.2813 19.9677 70.2463 19.9887H70.248Z" fill="#333333" fill-opacity="0.6"/>
<path d="M75.0826 19.5388C74.8933 19.7787 74.6637 19.9556 74.3938 20.0695C74.1292 20.1868 73.8313 20.2446 73.4983 20.2446C73.1268 20.2446 72.8078 20.178 72.5397 20.0432C72.275 19.9136 72.056 19.7349 71.8825 19.5073C71.7142 19.2796 71.5881 19.0169 71.5039 18.7192C71.4233 18.4162 71.3848 18.0974 71.3848 17.7612C71.3848 17.4249 71.4268 17.1202 71.5109 16.8207C71.5951 16.5177 71.723 16.2533 71.8965 16.0256C72.0682 15.7979 72.2873 15.6175 72.5519 15.4827C72.8166 15.3478 73.1338 15.2812 73.4983 15.2812C73.8628 15.2812 74.1678 15.3513 74.4324 15.4897C74.697 15.6245 74.9161 15.8049 75.0896 16.0326C75.2666 16.2603 75.3963 16.523 75.4804 16.8207C75.568 17.1184 75.6101 17.4319 75.6066 17.7612C75.6031 18.1307 75.5592 18.4652 75.4734 18.7629C75.3893 19.0572 75.2596 19.3164 75.0826 19.5388ZM73.4983 15.9573C73.2547 15.9573 73.0444 16.0116 72.8674 16.1219C72.6956 16.227 72.5519 16.3653 72.438 16.5387C72.3276 16.7069 72.247 16.8995 72.1909 17.1184C72.1401 17.3321 72.1156 17.5475 72.1156 17.7629C72.1156 17.9783 72.1401 18.1938 72.1909 18.4127C72.247 18.6281 72.3276 18.8207 72.438 18.9924C72.5519 19.164 72.6939 19.3059 72.8674 19.4144C73.0444 19.5195 73.2547 19.5721 73.4983 19.5721C73.7419 19.5721 73.9504 19.5195 74.1222 19.4144C74.2992 19.3059 74.4411 19.164 74.5516 18.9924C74.662 18.8207 74.7408 18.6263 74.7916 18.4127C74.846 18.1938 74.874 17.9783 74.874 17.7629C74.874 17.5475 74.8477 17.3408 74.7969 17.1254C74.7461 16.9118 74.6637 16.7174 74.5498 16.5457C74.4411 16.3741 74.2974 16.2322 74.1204 16.1237C73.9487 16.0151 73.7401 15.959 73.4965 15.959L73.4983 15.9573Z" fill="#333333" fill-opacity="0.6"/>
<path d="M80.0457 19.5388C79.8564 19.7787 79.6286 19.9556 79.3587 20.0695C79.094 20.1868 78.7944 20.2446 78.4614 20.2446C78.0916 20.2446 77.7709 20.178 77.5028 20.0432C77.2381 19.9136 77.0191 19.7349 76.8473 19.5073C76.6791 19.2796 76.5529 19.0169 76.4688 18.7192C76.3882 18.4162 76.3496 18.0974 76.3496 17.7612C76.3496 17.4249 76.3917 17.1202 76.4758 16.8207C76.5599 16.5177 76.6878 16.2533 76.8613 16.0256C77.0331 15.7979 77.2522 15.6175 77.5185 15.4827C77.7832 15.3478 78.0986 15.2812 78.4649 15.2812C78.8312 15.2812 79.1344 15.3513 79.399 15.4897C79.6654 15.6245 79.8827 15.8049 80.0544 16.0326C80.2314 16.2603 80.3629 16.523 80.4452 16.8207C80.5346 17.1184 80.5767 17.4319 80.5714 17.7612C80.5679 18.1307 80.5223 18.4652 80.4382 18.7629C80.3541 19.0572 80.2244 19.3164 80.0474 19.5388H80.0457ZM78.4631 15.9573C78.2195 15.9573 78.0092 16.0116 77.8322 16.1219C77.6605 16.227 77.5168 16.3653 77.4029 16.5387C77.2942 16.7069 77.2118 16.8995 77.1575 17.1184C77.1067 17.3321 77.0804 17.5475 77.0804 17.7629C77.0804 17.9783 77.1067 18.1938 77.1575 18.4127C77.2118 18.6281 77.2942 18.8207 77.4029 18.9924C77.5168 19.164 77.6587 19.3059 77.8322 19.4144C78.0092 19.5195 78.2178 19.5721 78.4631 19.5721C78.7085 19.5721 78.9153 19.5195 79.0888 19.4144C79.2658 19.3059 79.4077 19.164 79.5182 18.9924C79.6286 18.8207 79.7074 18.6263 79.7582 18.4127C79.8126 18.1938 79.8406 17.9783 79.8406 17.7629C79.8406 17.5475 79.8161 17.3408 79.7653 17.1254C79.7144 16.9118 79.6321 16.7174 79.5182 16.5457C79.4095 16.3741 79.2658 16.2322 79.0888 16.1237C78.917 16.0151 78.7085 15.959 78.4631 15.959V15.9573Z" fill="#333333" fill-opacity="0.6"/>
<path d="M84.2943 19.5948C84.1803 19.6876 84.0524 19.7664 83.9087 19.8348C83.7667 19.9031 83.6125 19.9573 83.4478 19.9994C83.2848 20.0449 83.1131 20.0782 82.9361 20.0992C82.7591 20.1255 82.5856 20.1377 82.4121 20.1377H81.6409C81.5691 20.1377 81.5253 20.129 81.5095 20.1132C81.4972 20.0957 81.4902 20.0554 81.4902 19.9924V15.5474C81.4902 15.4669 81.4972 15.4213 81.5095 15.4091C81.527 15.3916 81.5744 15.3828 81.655 15.3828H82.7275C83.5477 15.3828 84.1576 15.614 84.5571 16.0763C84.7341 16.2778 84.8638 16.5124 84.9479 16.7821C85.0373 17.0483 85.0811 17.3688 85.0811 17.7471C85.0811 18.1254 85.011 18.4932 84.8726 18.812C84.7376 19.1325 84.5449 19.3917 84.2925 19.5931L84.2943 19.5948ZM84.0174 16.5492C83.7475 16.2165 83.3146 16.0501 82.717 16.0501H82.2263V19.4617H82.5102C82.7538 19.4617 82.9834 19.4319 83.1989 19.3724C83.4127 19.3093 83.602 19.2113 83.7667 19.0764C83.956 18.9328 84.0997 18.7507 84.2014 18.5282C84.3083 18.3006 84.3591 18.0326 84.3591 17.7209C84.3591 17.4687 84.3328 17.2462 84.2785 17.0536C84.2224 16.8557 84.1365 16.6876 84.0191 16.5492H84.0174Z" fill="#333333" fill-opacity="0.6"/>
<path d="M86.8416 18.2095V20.0572C86.8416 20.1115 86.8135 20.1395 86.7592 20.1395H86.1984C86.1476 20.1395 86.123 20.1132 86.123 20.0572V15.4599C86.123 15.4389 86.1301 15.4213 86.1423 15.4091C86.1599 15.3916 86.1791 15.3828 86.1984 15.3828H87.4725C87.9386 15.3828 88.3067 15.4967 88.5766 15.7243C88.85 15.9503 88.9866 16.304 88.9866 16.7839C88.9866 17.0151 88.9481 17.2217 88.8675 17.4021C88.7921 17.579 88.6835 17.7279 88.5398 17.8487C88.4013 17.9661 88.2348 18.0571 88.0403 18.1202C87.851 18.178 87.6425 18.2077 87.4164 18.2077H86.8416V18.2095ZM86.8416 16.0466V17.5545H87.3533C87.6355 17.5545 87.858 17.4949 88.0228 17.3776C88.1875 17.255 88.2681 17.0571 88.2681 16.7786C88.2681 16.5387 88.2033 16.3583 88.0718 16.2357C87.9422 16.1096 87.7704 16.0466 87.5601 16.0466H86.8416Z" fill="#333333" fill-opacity="0.6"/>
<path d="M89.7841 20.1377C89.7631 20.1377 89.7438 20.129 89.7263 20.1132C89.714 20.101 89.707 20.0834 89.707 20.0624V15.4599C89.707 15.4389 89.714 15.4213 89.7263 15.4091C89.7438 15.3916 89.7614 15.3828 89.7841 15.3828H90.352C90.373 15.3828 90.3888 15.3916 90.4028 15.4091C90.4186 15.4213 90.4273 15.4389 90.4273 15.4599V19.4757H92.0624C92.1132 19.4757 92.1378 19.5037 92.1378 19.558V20.0624C92.1378 20.0834 92.129 20.0992 92.1132 20.1132C92.101 20.129 92.0834 20.1377 92.0624 20.1377H89.7859H89.7841Z" fill="#333333" fill-opacity="0.6"/>
<path d="M96.1015 20.136C96.0717 20.136 96.0507 20.1325 96.0384 20.1237C96.0261 20.1202 96.0139 20.1027 96.0016 20.0729L95.5477 18.9381H93.4903L93.0364 20.0729C93.0276 20.1027 93.0171 20.1185 93.0048 20.1237C92.9925 20.1325 92.9715 20.136 92.9417 20.136H92.3616C92.2845 20.136 92.26 20.1062 92.2845 20.0484L94.1264 15.4529C94.1387 15.4178 94.1475 15.4003 94.1527 15.3951C94.1615 15.3881 94.186 15.3828 94.2281 15.3828H94.8152C94.852 15.3828 94.8747 15.3881 94.8835 15.3951C94.8923 15.3986 94.9028 15.4178 94.9151 15.4529L96.7569 20.0484C96.778 20.1062 96.7534 20.136 96.6816 20.136H96.1015ZM93.7479 18.2761H95.2813L94.5172 16.3338L93.7479 18.2761Z" fill="#333333" fill-opacity="0.6"/>
<path d="M100.174 20.1344C100.141 20.1344 100.117 20.1274 100.099 20.1151C100.082 20.1028 100.06 20.0748 100.036 20.0328L98.0556 16.6282V20.0328C98.0556 20.0748 98.0486 20.1028 98.0363 20.1151C98.0241 20.1274 97.996 20.1344 97.954 20.1344H97.4317C97.3967 20.1344 97.3721 20.1274 97.3546 20.1151C97.3371 20.1028 97.3301 20.0748 97.3301 20.0328V15.4863C97.3301 15.4355 97.3388 15.4057 97.3546 15.3917C97.3721 15.3742 97.4037 15.3672 97.4492 15.3672H98.0293C98.0626 15.3672 98.0872 15.3742 98.1047 15.3864C98.1222 15.3952 98.1432 15.4232 98.1678 15.4688L100.15 18.8681V15.4688C100.15 15.4267 100.155 15.4005 100.167 15.3864C100.18 15.3742 100.208 15.3672 100.25 15.3672H100.774C100.816 15.3672 100.842 15.3742 100.849 15.3864C100.861 15.4005 100.868 15.4267 100.868 15.4688V20.0153C100.868 20.0661 100.86 20.0976 100.842 20.1099C100.83 20.1256 100.8 20.1344 100.754 20.1344H100.173H100.174Z" fill="#333333" fill-opacity="0.6"/>
<path d="M29.0105 6.32589H25.0025C24.7905 6.32589 24.6135 6.31363 24.4715 6.28561C24.3383 6.25934 24.2332 6.21556 24.1526 6.15251C24.0807 6.08245 24.0334 5.98438 24.0054 5.86178C23.9791 5.73919 23.9668 5.57981 23.9668 5.38366V0.56919C23.9668 0.40106 24.0474 0.316997 24.2051 0.316997H25.5458C25.7228 0.316997 25.8122 0.40106 25.8122 0.56919V1.94926H28.1886V0.556932C28.1886 0.380045 28.2727 0.292476 28.441 0.292476H29.7676C29.9446 0.292476 30.034 0.381797 30.034 0.556932V2.66556H31.9582V0.252195C31.9582 0.136606 31.9863 0.0665534 32.0389 0.0402831C32.0914 0.0140128 32.158 0 32.2386 0H33.5513C33.6669 0 33.7335 0.0262715 33.7511 0.0805635C33.7773 0.124347 33.7914 0.182141 33.7914 0.252195V6.36617C33.7914 6.5343 33.7072 6.61837 33.539 6.61837H32.2106C32.0424 6.61837 31.9582 6.53956 31.9582 6.38018V4.17873H30.034V5.4257C30.034 5.76196 29.9621 5.99489 29.8202 6.12799C29.687 6.26109 29.4189 6.32589 29.0105 6.32589ZM32.7662 12.4924H26.8725C26.6604 12.4924 26.4869 12.4801 26.3555 12.4539C26.2223 12.4276 26.1171 12.3786 26.0365 12.3085C25.9664 12.2455 25.9121 12.1544 25.877 12.0301C25.8507 11.9075 25.8367 11.7428 25.8367 11.5397V7.61489C25.8367 7.45552 25.9208 7.37671 26.0891 7.37671H27.4035C27.5016 7.37671 27.5717 7.39422 27.6155 7.42924C27.6593 7.45551 27.6821 7.51856 27.6821 7.61489V8.58339H31.9425V7.56235C31.9425 7.46427 31.9653 7.39947 32.0091 7.36444C32.0529 7.32942 32.1142 7.3119 32.1948 7.3119H33.5495C33.6284 7.3119 33.688 7.32942 33.7213 7.36444C33.7651 7.39947 33.7879 7.46602 33.7879 7.56235V11.5817C33.7879 11.9267 33.7213 12.1649 33.5898 12.298C33.4654 12.4294 33.1903 12.4959 32.7662 12.4959V12.4924ZM31.9425 10.0528H27.6821V10.8759C27.6821 10.9547 27.7259 10.995 27.8153 10.995H31.811C31.8987 10.995 31.9425 10.9547 31.9425 10.8759V10.0528ZM28.1868 3.42039H25.8104V4.65335C25.8104 4.7777 25.877 4.83899 26.0085 4.83899H27.9853C28.1185 4.83899 28.1851 4.7777 28.1851 4.65335V3.42039H28.1868Z" fill="#333333" fill-opacity="0.6"/>
<path d="M44.8364 5.47618H38.1734C37.9701 5.47618 37.8054 5.46742 37.6827 5.44815C37.5582 5.42188 37.4601 5.3781 37.39 5.31505C37.3182 5.245 37.2708 5.15218 37.2428 5.03659C37.2165 4.91399 37.2042 4.74936 37.2042 4.54621V1.11005C37.2042 0.924408 37.2165 0.773791 37.2428 0.659953C37.2778 0.544363 37.3322 0.456795 37.4023 0.393746C37.4811 0.332449 37.5793 0.292169 37.6949 0.274655C37.8106 0.248385 37.9473 0.234375 38.1068 0.234375H44.8347C45.0204 0.234375 45.1712 0.243131 45.2868 0.260644C45.4025 0.278158 45.4901 0.318438 45.5532 0.379735C45.6233 0.441032 45.6724 0.530353 45.6987 0.644191C45.7249 0.75978 45.739 0.913899 45.739 1.1083V4.54446C45.739 4.73886 45.7249 4.89823 45.6987 5.02258C45.6724 5.14692 45.6233 5.24325 45.5532 5.3133C45.4919 5.37635 45.4025 5.42013 45.2868 5.4464C45.1712 5.46567 45.0222 5.47442 44.8347 5.47442L44.8364 5.47618ZM47.1743 8.16976H42.3952V12.3607C42.3952 12.5376 42.3076 12.6252 42.1305 12.6252H40.8162C40.6392 12.6252 40.5515 12.5376 40.5515 12.3607V8.16976H35.7742C35.6585 8.16976 35.5832 8.14349 35.5481 8.09095C35.5218 8.03841 35.5078 7.9631 35.5078 7.86502V6.94906C35.5078 6.85099 35.5201 6.78093 35.5481 6.73715C35.5832 6.68461 35.6585 6.65659 35.7742 6.65659H47.1743C47.36 6.65659 47.4529 6.75291 47.4529 6.94731V7.86327C47.4529 8.06643 47.36 8.16801 47.1743 8.16801V8.16976ZM43.9216 2.00149C43.9216 1.8859 43.9093 1.81585 43.8813 1.78958C43.8638 1.75455 43.8024 1.73703 43.6955 1.73703H39.2897C39.1741 1.73703 39.0987 1.75105 39.0637 1.77732C39.0374 1.80359 39.0233 1.87889 39.0233 2.00324V3.71431C39.0233 3.83866 39.0374 3.91397 39.0637 3.94024C39.0987 3.96651 39.1741 3.98052 39.2897 3.98052H43.6955C43.8024 3.98052 43.8638 3.96651 43.8813 3.94024C43.9076 3.90521 43.9216 3.8299 43.9216 3.71431V2.00324V2.00149Z" fill="#333333" fill-opacity="0.6"/>
<path d="M53.9461 6.32589H49.9381C49.726 6.32589 49.549 6.31363 49.4071 6.28561C49.2739 6.25934 49.1687 6.21556 49.0881 6.15251C49.018 6.08245 48.9689 5.98438 48.9427 5.86178C48.9164 5.73919 48.9023 5.57981 48.9023 5.38366V0.56919C48.9023 0.40106 48.9812 0.316997 49.1407 0.316997H50.4814C50.6584 0.316997 50.7477 0.40106 50.7477 0.56919V1.94926H53.1241V0.556932C53.1241 0.380045 53.2083 0.292476 53.3765 0.292476H54.7032C54.8802 0.292476 54.9678 0.381797 54.9678 0.556932V2.66556H56.892V0.252195C56.892 0.136606 56.9183 0.0665534 56.9709 0.0402831C57.0235 0.0140128 57.0901 0 57.1689 0H58.4833C58.599 0 58.6638 0.0262715 58.6831 0.0805635C58.7094 0.124347 58.7234 0.182141 58.7234 0.252195V6.36617C58.7234 6.5343 58.6393 6.61837 58.4711 6.61837H57.1444C56.9762 6.61837 56.892 6.53956 56.892 6.38018V4.17873H54.9678V5.4257C54.9678 5.76196 54.8977 5.99489 54.7557 6.12799C54.6225 6.26109 54.3527 6.32589 53.9461 6.32589ZM57.7017 12.4924H51.8098C51.5977 12.4924 51.4242 12.4801 51.291 12.4539C51.1578 12.4276 51.0527 12.3786 50.9738 12.3085C50.902 12.2455 50.8494 12.1544 50.8143 12.0301C50.788 11.9075 50.7758 11.7428 50.7758 11.5397V7.61489C50.7758 7.45552 50.8599 7.37671 51.0281 7.37671H52.3408C52.4372 7.37671 52.509 7.39422 52.5528 7.42924C52.5966 7.45551 52.6194 7.51856 52.6194 7.61489V8.58339H56.8798V7.56235C56.8798 7.46427 56.9026 7.39947 56.9464 7.36444C56.9902 7.32942 57.0515 7.3119 57.1321 7.3119H58.4851C58.5639 7.3119 58.6218 7.32942 58.6568 7.36444C58.7006 7.39947 58.7234 7.46602 58.7234 7.56235V11.5817C58.7234 11.9267 58.6568 12.1649 58.5236 12.298C58.3992 12.4294 58.1258 12.4959 57.6999 12.4959L57.7017 12.4924ZM56.8798 10.0528H52.6194V10.8759C52.6194 10.9547 52.6632 10.995 52.7526 10.995H56.7466C56.836 10.995 56.8798 10.9547 56.8798 10.8759V10.0528ZM53.1241 3.42039H50.7495V4.65335C50.7495 4.7777 50.8161 4.83899 50.9475 4.83899H52.9261C53.0575 4.83899 53.1241 4.7777 53.1241 4.65335V3.42039Z" fill="#333333" fill-opacity="0.6"/>
<path d="M70.8219 8.99145H69.4813C69.3849 8.99145 69.3183 8.97394 69.2832 8.93891C69.2482 8.89513 69.2307 8.82332 69.2307 8.727V0.252195C69.2307 0.0840654 69.3148 0 69.483 0H70.8237C70.9832 0 71.062 0.0840654 71.062 0.252195V8.74101C71.062 8.83733 71.0445 8.90388 71.0095 8.93891C70.9832 8.97394 70.9201 8.99145 70.8237 8.99145H70.8219ZM64.3587 6.97564C63.8802 6.97564 63.4421 6.89683 63.0443 6.73746C62.6465 6.57808 62.3012 6.35741 62.0086 6.07545C61.7159 5.78297 61.4898 5.44846 61.3321 5.06667C61.1726 4.67787 61.0938 4.25754 61.0938 3.80569C61.0938 3.38187 61.1726 2.97905 61.3321 2.59901C61.4916 2.21021 61.7176 1.87045 62.0086 1.57797C62.3012 1.2855 62.6465 1.05607 63.0443 0.887938C63.4421 0.711051 63.8802 0.623484 64.3587 0.623484C64.8371 0.623484 65.2928 0.711051 65.6976 0.887938C66.1059 1.05607 66.4547 1.2855 66.7473 1.57797C67.047 1.87045 67.2784 2.21021 67.4378 2.59901C67.6061 2.97905 67.6902 3.38187 67.6902 3.80569C67.6902 4.25579 67.6061 4.67612 67.4378 5.06667C67.2784 5.44671 67.0488 5.78297 66.7473 6.07545C66.4547 6.35741 66.1059 6.57808 65.6976 6.73746C65.291 6.89683 64.8441 6.97564 64.3587 6.97564ZM71.1952 12.5064H64.2272C64.0327 12.5064 63.8732 12.4889 63.7488 12.4539C63.6349 12.4276 63.5403 12.3751 63.4702 12.2945C63.4001 12.2139 63.351 12.1124 63.3229 11.9898C63.2967 11.8654 63.2826 11.7113 63.2826 11.5257V8.52734C63.2826 8.3417 63.372 8.24888 63.549 8.24888H64.8634C65.0404 8.24888 65.1298 8.3417 65.1298 8.52734V10.7831C65.1298 10.9162 65.1999 10.9827 65.3418 10.9827H71.1952C71.2653 10.9827 71.3267 10.9968 71.381 11.0213C71.4353 11.058 71.4598 11.1228 71.4598 11.2209V12.2682C71.4598 12.3926 71.4336 12.4626 71.381 12.4801C71.3284 12.4977 71.2653 12.5064 71.1952 12.5064ZM64.3587 2.22772C64.1466 2.22772 63.9468 2.268 63.7611 2.34682C63.5841 2.42738 63.4246 2.54122 63.2826 2.69183C63.1494 2.83369 63.0443 3.00532 62.9637 3.20848C62.8936 3.40288 62.8568 3.6148 62.8568 3.84597C62.8568 4.07715 62.8918 4.29257 62.9637 4.49572C63.0425 4.69012 63.1494 4.86351 63.2826 5.01413C63.4246 5.15599 63.5823 5.26632 63.7611 5.34513C63.9468 5.42569 64.1466 5.46423 64.3587 5.46423C64.8003 5.46423 65.1648 5.31361 65.447 5.01238C65.7397 4.70239 65.8851 4.31359 65.8851 3.84597C65.8851 3.37836 65.7397 2.99307 65.447 2.69183C65.1648 2.38184 64.8003 2.22772 64.3587 2.22772Z" fill="#333333" fill-opacity="0.6"/>
<path d="M88.2858 6.42095H83.4822V7.70644C83.4822 7.78875 83.4646 7.86581 83.4506 7.94463C83.4366 8.02344 83.4191 8.09874 83.4016 8.17055C83.5435 8.53308 83.7591 8.86934 84.0517 9.17933C84.3514 9.48056 84.6879 9.75027 85.0594 9.98846C85.431 10.2179 85.8253 10.4123 86.2406 10.5717C86.6577 10.731 87.0503 10.8501 87.4218 10.9307C87.5462 10.957 87.6128 10.992 87.6216 11.0358C87.6391 11.0883 87.6304 11.1601 87.5953 11.2477L87.1589 12.3493C87.1046 12.4824 86.9732 12.5209 86.7594 12.4684C86.3966 12.3878 86.0216 12.2687 85.6307 12.1111C85.2504 11.9605 84.8737 11.7748 84.5021 11.5542C84.1394 11.3423 83.7976 11.0953 83.4804 10.8116C83.1615 10.5384 82.8828 10.2407 82.6445 9.92366C82.2116 10.5524 81.6298 11.0848 80.906 11.5279C80.1892 11.9797 79.3533 12.3318 78.3981 12.5892C78.2737 12.6242 78.1896 12.633 78.1458 12.6155C78.1107 12.598 78.0792 12.5542 78.0529 12.4824L77.6025 11.3948C77.5394 11.2529 77.606 11.1566 77.8005 11.1023C78.9852 10.7573 79.9106 10.2897 80.5748 9.69598C81.2372 9.10402 81.6087 8.38772 81.6893 7.54707V6.41919H76.8857C76.7788 6.41919 76.7087 6.40168 76.6737 6.36666C76.6386 6.32287 76.6211 6.25107 76.6211 6.15299V5.1985C76.6211 5.09342 76.6334 5.01811 76.6614 4.97258C76.6877 4.92879 76.763 4.90602 76.8875 4.90602H84.7966C84.8053 4.90602 84.8088 4.90252 84.8088 4.89377C84.8439 4.69937 84.8807 4.46468 84.9157 4.19147C84.9508 3.91651 84.9823 3.64855 85.0086 3.38235C85.0349 3.11789 85.0524 2.87796 85.0612 2.66604C85.0787 2.44537 85.0892 2.29476 85.0892 2.21419C85.0892 2.08109 85.0699 1.98827 85.0349 1.93573C84.9998 1.87443 84.8982 1.84291 84.73 1.84291H78.7311C78.6417 1.84291 78.5716 1.83415 78.5191 1.81664C78.4752 1.79037 78.4525 1.72031 78.4525 1.60472V0.569673C78.4525 0.473349 78.4752 0.410301 78.5191 0.38403C78.5716 0.35776 78.6435 0.34375 78.7311 0.34375H85.9637C86.2827 0.34375 86.5175 0.413803 86.6665 0.555662C86.8172 0.688765 86.8926 0.923447 86.8926 1.25971C86.8926 1.49789 86.8838 1.7641 86.8663 2.05482C86.8575 2.33854 86.8382 2.63802 86.8119 2.95677C86.7857 3.27552 86.7488 3.60302 86.705 3.93753C86.67 4.26503 86.6209 4.58728 86.5596 4.90602H88.2858C88.4716 4.90602 88.5644 5.0041 88.5644 5.1985V6.15299C88.5644 6.25982 88.5382 6.32988 88.4838 6.36666C88.4313 6.40168 88.3647 6.41919 88.2858 6.41919V6.42095Z" fill="#333333" fill-opacity="0.6"/>
<path d="M99.24 12.6639H91.8339C91.6393 12.6639 91.4799 12.6464 91.3554 12.6113C91.2398 12.5851 91.1469 12.536 91.0768 12.466C91.0137 12.4047 90.9699 12.3154 90.9436 12.1998C90.9261 12.0947 90.9173 11.9616 90.9173 11.8022V10.1034C90.9173 9.93528 90.9261 9.79867 90.9436 9.69184C90.9699 9.58501 91.0137 9.50094 91.0768 9.43964C91.1469 9.36784 91.2415 9.32055 91.3554 9.29253C91.4694 9.26626 91.6253 9.254 91.8199 9.254H97.2351C97.314 9.254 97.3543 9.20496 97.3543 9.10689V8.81441C97.3543 8.70933 97.3105 8.65504 97.2211 8.65504H91.1557C91.0593 8.65504 90.9874 8.63752 90.9436 8.6025C90.9085 8.56747 90.891 8.49741 90.891 8.39058V7.48863C90.891 7.3205 90.9804 7.23644 91.1557 7.23644H98.2165C98.6143 7.23644 98.872 7.30299 98.9859 7.43434C99.1015 7.55869 99.1594 7.77936 99.1594 8.0981V9.75664C99.1594 9.93352 99.1471 10.0789 99.1191 10.1945C99.1015 10.2996 99.0612 10.3854 98.9999 10.4467C98.9386 10.508 98.8457 10.5483 98.7212 10.5658C98.5968 10.592 98.4373 10.6043 98.2428 10.6043H92.8679C92.7802 10.6043 92.7347 10.6481 92.7347 10.7374V11.0947C92.7347 11.191 92.782 11.24 92.8801 11.24H99.226C99.3224 11.24 99.3942 11.254 99.438 11.2803C99.4818 11.3066 99.5046 11.3766 99.5046 11.4922V12.3942C99.5046 12.5711 99.4152 12.6586 99.2382 12.6586L99.24 12.6639ZM99.3066 4.33445H90.7859C90.5913 4.33445 90.495 4.23287 90.495 4.02971V3.12776C90.495 2.95964 90.5913 2.87557 90.7859 2.87557H92.1528V1.57607H91.0242C90.8209 1.57607 90.7193 1.47799 90.7193 1.28359V0.395652C90.7193 0.297576 90.7456 0.227524 90.7981 0.18374C90.8612 0.139956 90.9366 0.117188 91.0242 0.117188H99.0805C99.2663 0.117188 99.3592 0.210009 99.3592 0.395652V1.2976C99.3592 1.48324 99.2663 1.57607 99.0805 1.57607H97.9396V2.87557H99.3066C99.5011 2.87557 99.5992 2.95964 99.5992 3.12776V4.04372C99.5992 4.23812 99.5011 4.33445 99.3066 4.33445ZM100.74 6.48336H89.3523C89.2279 6.48336 89.1525 6.46059 89.1262 6.41681C89.1 6.37302 89.0859 6.30122 89.0859 6.20314V5.30119C89.0859 5.20312 89.1035 5.13306 89.1385 5.08928C89.1736 5.0455 89.2454 5.02273 89.3506 5.02273H100.738C100.817 5.02273 100.884 5.0455 100.936 5.08928C100.991 5.12431 101.017 5.19436 101.017 5.30119V6.20314C101.017 6.38879 100.924 6.48161 100.738 6.48161L100.74 6.48336ZM93.9719 2.87557H96.1223V1.57607H93.9719V2.87557Z" fill="#333333" fill-opacity="0.6"/>
<path d="M112.612 9.01772H111.298C111.201 9.01772 111.135 9.00021 111.098 8.96518C111.063 8.93015 111.045 8.8636 111.045 8.76553V5.21028H110.09V8.48706C110.09 8.58514 110.073 8.65169 110.038 8.68672C110.003 8.71299 109.936 8.72525 109.838 8.72525H108.59C108.492 8.72525 108.422 8.71124 108.378 8.68672C108.343 8.65169 108.325 8.58514 108.325 8.48706V0.476369C108.325 0.369536 108.343 0.299483 108.378 0.264456C108.422 0.229429 108.492 0.211915 108.59 0.211915H109.838C110.006 0.211915 110.09 0.299482 110.09 0.476369V3.71287H111.045V0.252195C111.045 0.0840654 111.135 0 111.312 0H112.612C112.71 0 112.775 0.0175141 112.81 0.0525412C112.847 0.0875682 112.863 0.15412 112.863 0.252195V8.76728C112.863 8.86361 112.845 8.93016 112.81 8.96694C112.775 9.00196 112.71 9.01947 112.612 9.01947V9.01772ZM112.917 12.5064H105.273C105.087 12.5064 104.933 12.4889 104.808 12.4539C104.694 12.4276 104.6 12.3786 104.53 12.3085C104.466 12.2385 104.423 12.1404 104.396 12.0178C104.37 11.8934 104.358 11.7393 104.358 11.5537V8.86185C104.358 8.67621 104.445 8.58339 104.622 8.58339H105.923C106.109 8.58339 106.203 8.67621 106.203 8.86185V10.7971C106.203 10.9302 106.273 10.9968 106.415 10.9968H112.919C112.989 10.9968 113.052 11.009 113.105 11.0353C113.159 11.0703 113.185 11.1369 113.185 11.2349V12.2682C113.185 12.3926 113.159 12.4626 113.105 12.4819C113.052 12.4994 112.991 12.5082 112.919 12.5082L112.917 12.5064ZM107.568 7.26812C107.295 7.32942 106.976 7.38721 106.613 7.4415C106.25 7.48529 105.87 7.52557 105.472 7.5606C105.075 7.58687 104.671 7.60438 104.265 7.61314C103.867 7.62189 103.492 7.61664 103.136 7.60088C102.765 7.58336 102.504 7.50805 102.355 7.37495C102.213 7.23309 102.143 6.99491 102.143 6.65865V4.12444C102.143 3.84247 102.204 3.64632 102.328 3.54124C102.453 3.42565 102.656 3.36961 102.94 3.36961H105.076C105.155 3.36961 105.204 3.36085 105.222 3.34334C105.248 3.31707 105.262 3.26453 105.262 3.18396V2.37484C105.262 2.29428 105.25 2.24699 105.222 2.22948C105.204 2.20321 105.155 2.18919 105.076 2.18919H102.488C102.311 2.18919 102.223 2.10513 102.223 1.937V0.928218C102.223 0.831894 102.241 0.768845 102.276 0.742575C102.32 0.707548 102.39 0.690034 102.488 0.690034H106.124C106.319 0.690034 106.471 0.712802 106.589 0.742575C106.711 0.774099 106.806 0.817884 106.867 0.887938C106.93 0.959743 106.965 1.05256 106.987 1.1664C107.009 1.28199 107.027 1.42735 107.027 1.60424V3.83196C107.027 4.20325 106.951 4.45545 106.801 4.58855C106.659 4.7199 106.429 4.78645 106.11 4.78645H104.079C103.965 4.78645 103.907 4.84425 103.907 4.95984V5.98088C103.907 6.09647 103.974 6.15251 104.107 6.15251C104.699 6.17002 105.253 6.15776 105.765 6.11398C106.287 6.07019 106.818 5.99489 107.358 5.88805C107.454 5.86879 107.521 5.8793 107.558 5.91432C107.593 5.94935 107.619 6.00189 107.637 6.0737L107.77 6.96163C107.805 7.12976 107.738 7.23134 107.572 7.26637L107.568 7.26812Z" fill="#333333" fill-opacity="0.6"/>
<path d="M0 5.65625V20.096H3.27777H4.85026V16.8298H3.27777V8.92248H13.5462V5.65625H3.27777H1.16417H0Z" fill="#333333" fill-opacity="0.6"/>
<path d="M8.73123 9.86719V20.0954H5.41992V9.86719H8.73123Z" fill="#333333" fill-opacity="0.6"/>
<path d="M5.41992 0.242188V3.50841V5.07468H8.69876V3.50841H15.6873V11.4158H15.0643V14.682H15.6873H17.326H18.9662V0.242188H17.326H15.6873H5.41992Z" fill="#333333" fill-opacity="0.6"/>
<path d="M9.63281 11.375V14.5936H11.1929V16.8804H9.63281V20.099H13.0785H14.4493V14.5936V13.6617V11.375H9.63281Z" fill="#333333" fill-opacity="0.6"/>
</svg>
