<svg width="285" height="48" viewBox="0 0 285 48" fill="none" xmlns="http://www.w3.org/2000/svg">
<path d="M91.2975 47.4941C91.2444 47.4941 91.1958 47.4735 91.156 47.4363C91.1251 47.4074 91.1074 47.3661 91.1074 47.3166V36.463C91.1074 36.4134 91.1251 36.3721 91.156 36.3432C91.1958 36.3019 91.2444 36.2812 91.2975 36.2812H92.7296C92.7826 36.2812 92.8224 36.3019 92.8578 36.3432C92.8975 36.3721 92.9196 36.4134 92.9196 36.463V45.933H97.0391C97.1673 45.933 97.2336 45.9991 97.2336 46.1271V47.3166C97.2336 47.3661 97.2115 47.4033 97.1673 47.4363C97.1364 47.4735 97.0922 47.4941 97.0391 47.4941H91.2975Z" fill="white"/>
<path d="M107.232 47.49C107.156 47.49 107.103 47.4818 107.072 47.4611C107.042 47.4529 107.006 47.4115 106.975 47.3413L105.83 44.6651H100.641L99.4965 47.3413C99.4744 47.4115 99.4478 47.4487 99.4169 47.4611C99.386 47.4818 99.3329 47.49 99.2578 47.49H97.7947C97.6047 47.49 97.5428 47.4198 97.6047 47.2835L102.25 36.4465C102.281 36.3639 102.303 36.3226 102.312 36.3102C102.334 36.2936 102.396 36.2812 102.502 36.2812H103.983C104.076 36.2812 104.138 36.2936 104.155 36.3102C104.177 36.3184 104.204 36.3639 104.235 36.4465L108.88 47.2835C108.933 47.4198 108.867 47.49 108.686 47.49H107.223H107.232ZM101.295 43.104H105.163L103.236 38.5238L101.295 43.104Z" fill="white"/>
<path d="M120.779 47.3331C120.757 47.4115 120.731 47.457 120.7 47.4652C120.669 47.4859 120.611 47.4941 120.527 47.4941H119.016C118.932 47.4941 118.874 47.4859 118.839 47.4652C118.808 47.457 118.781 47.4115 118.759 47.3331L116.116 38.8873L113.473 47.3331C113.451 47.4115 113.424 47.457 113.393 47.4652C113.371 47.4859 113.314 47.4941 113.217 47.4941H111.705C111.621 47.4941 111.559 47.4859 111.528 47.4652C111.497 47.457 111.471 47.4115 111.449 47.3331L108.089 36.4919C108.067 36.4217 108.067 36.3721 108.089 36.3432C108.107 36.3019 108.191 36.2812 108.328 36.2812H109.65C109.725 36.2812 109.778 36.2936 109.809 36.3102C109.84 36.3184 109.866 36.3597 109.888 36.4299L112.531 44.8014L115.108 36.4299C115.13 36.3597 115.157 36.3184 115.188 36.3102C115.232 36.2936 115.29 36.2812 115.365 36.2812H116.859C116.934 36.2812 116.987 36.2936 117.018 36.3102C117.058 36.3184 117.093 36.3597 117.111 36.4299L119.688 44.8014L122.331 36.4299C122.348 36.3597 122.379 36.3184 122.41 36.3102C122.441 36.2936 122.499 36.2812 122.569 36.2812H123.891C124.028 36.2812 124.108 36.3019 124.13 36.3432C124.147 36.3721 124.147 36.4217 124.13 36.4919L120.77 47.3331H120.779Z" fill="white"/>
<path d="M127.449 37.8548V40.9357H131.396C131.533 40.9357 131.604 40.9936 131.604 41.1133V42.3193C131.604 42.4391 131.533 42.501 131.396 42.501H127.449V47.2711C127.449 47.4198 127.374 47.4942 127.224 47.4942H125.92C125.761 47.4942 125.681 47.4198 125.681 47.2711V36.5497C125.681 36.4423 125.703 36.3721 125.743 36.3432C125.787 36.3019 125.849 36.2812 125.933 36.2812H131.613C131.666 36.2812 131.71 36.3019 131.741 36.3432C131.785 36.3721 131.803 36.4134 131.803 36.463V37.6524C131.803 37.7928 131.741 37.8589 131.613 37.8589H127.445L127.449 37.8548Z" fill="white"/>
<path d="M135.308 47.3C135.308 47.4281 135.237 47.4941 135.1 47.4941H133.651C133.514 47.4941 133.447 47.4322 133.447 47.3V36.4754C133.447 36.3473 133.514 36.2812 133.651 36.2812H135.1C135.237 36.2812 135.308 36.3473 135.308 36.4754V47.3Z" fill="white"/>
<path d="M144.144 47.4905C144.029 47.4905 143.94 47.4822 143.887 47.4616C143.848 47.4533 143.799 47.412 143.746 47.3418L141.31 42.9392H139.498V47.2964C139.498 47.4244 139.428 47.4905 139.291 47.4905H137.876C137.748 47.4905 137.686 47.4285 137.686 47.2964V36.4552C137.686 36.4056 137.704 36.3643 137.735 36.3354C137.779 36.2941 137.823 36.2734 137.876 36.2734H141.089C142.265 36.2734 143.202 36.5419 143.887 37.0788C144.577 37.6116 144.922 38.4458 144.922 39.5774C144.922 40.3002 144.754 40.9155 144.413 41.4235C144.073 41.9191 143.609 42.295 143.012 42.551L145.669 47.2798C145.757 47.4161 145.691 47.4863 145.479 47.4863H144.139L144.144 47.4905ZM139.498 37.8387V41.3946H140.807C141.505 41.3946 142.062 41.2542 142.477 40.9775C142.893 40.6884 143.096 40.2217 143.096 39.565C143.096 38.9992 142.933 38.5738 142.606 38.2847C142.287 37.9874 141.859 37.8387 141.315 37.8387H139.503H139.498Z" fill="white"/>
<path d="M158.261 47.4941C158.177 47.4941 158.124 47.4776 158.102 47.4487C158.08 47.4281 158.071 47.3868 158.071 47.3289V39.2548L154.619 47.3C154.597 47.3496 154.571 47.3785 154.54 47.3868C154.522 47.395 154.456 47.3992 154.35 47.3992H153.077C152.971 47.3992 152.904 47.3992 152.873 47.3868C152.851 47.3785 152.829 47.3455 152.807 47.3L149.355 39.2548V47.3289C149.355 47.3868 149.346 47.4281 149.324 47.4487C149.302 47.4776 149.249 47.4941 149.165 47.4941H147.684C147.556 47.4941 147.494 47.4405 147.494 47.3331V36.5951C147.494 36.4547 147.512 36.3721 147.543 36.3432C147.574 36.3019 147.675 36.2812 147.848 36.2812H149.74C149.815 36.2812 149.859 36.2978 149.868 36.3267C149.89 36.3432 149.916 36.3886 149.947 36.4588L153.718 45.202L157.488 36.4588C157.519 36.3886 157.541 36.3432 157.554 36.3267C157.576 36.2978 157.62 36.2812 157.696 36.2812H159.592C159.76 36.2812 159.866 36.3019 159.892 36.3432C159.923 36.3721 159.941 36.4547 159.941 36.5951V47.3331C159.941 47.4405 159.879 47.4941 159.751 47.4941H158.27H158.261Z" fill="white"/>
<path d="M176.706 47.1502C176.516 47.241 176.282 47.3154 176.008 47.3732C175.734 47.4434 175.429 47.5012 175.102 47.5549C174.783 47.6045 174.452 47.6375 174.111 47.6581C173.784 47.6871 173.471 47.7036 173.174 47.7036C172.295 47.7036 171.477 47.5755 170.726 47.3154C169.983 47.0593 169.342 46.6793 168.799 46.1837C168.259 45.6881 167.831 45.081 167.526 44.3542C167.216 43.6314 167.066 42.8095 167.066 41.8886C167.066 41.046 167.207 40.2737 167.495 39.5675C167.782 38.8572 168.189 38.2418 168.719 37.7214C169.249 37.2093 169.89 36.8045 170.646 36.5154C171.398 36.2263 172.246 36.0859 173.192 36.0859C173.829 36.0859 174.399 36.119 174.894 36.1892C175.393 36.247 175.866 36.342 176.313 36.47C176.432 36.4989 176.498 36.532 176.52 36.5733C176.543 36.6022 176.547 36.6352 176.538 36.6765L176.348 37.9403C176.339 38.0105 176.313 38.0601 176.268 38.089C176.224 38.1179 176.145 38.1138 176.03 38.0725C175.53 37.9238 175.057 37.8205 174.611 37.7627C174.165 37.6925 173.687 37.6595 173.179 37.6595C172.542 37.6595 171.963 37.7627 171.442 37.9692C170.92 38.1674 170.478 38.4565 170.103 38.8324C169.731 39.1999 169.439 39.6418 169.227 40.1581C169.028 40.6743 168.927 41.2484 168.927 41.8844C168.927 42.5659 169.028 43.1771 169.227 43.714C169.439 44.2385 169.731 44.6846 170.103 45.0521C170.483 45.4073 170.933 45.684 171.455 45.8699C171.977 46.0475 172.547 46.1383 173.174 46.1383C173.652 46.1383 174.067 46.1177 174.416 46.0805C174.766 46.0433 175.026 45.9814 175.194 45.9029V42.9128H172.569C172.507 42.9128 172.454 42.8963 172.41 42.8674C172.379 42.8261 172.361 42.7848 172.361 42.7352V41.5458C172.361 41.488 172.383 41.4343 172.423 41.3971C172.476 41.3558 172.529 41.3351 172.582 41.3351H176.657C176.817 41.3351 176.918 41.3599 176.958 41.4095C177.002 41.459 177.024 41.5582 177.024 41.7068V46.6133C177.024 46.7619 176.993 46.8734 176.927 46.956C176.865 47.0345 176.79 47.1006 176.702 47.1502H176.706Z" fill="white"/>
<path d="M188.897 46.079C188.419 46.6449 187.84 47.062 187.16 47.3304C186.492 47.6071 185.741 47.7434 184.901 47.7434C183.964 47.7434 183.159 47.5865 182.483 47.2685C181.816 46.9629 181.263 46.5416 180.826 46.0047C180.401 45.4678 180.083 44.8483 179.871 44.1462C179.668 43.4317 179.57 42.6801 179.57 41.8871C179.57 41.0942 179.676 40.3755 179.889 39.6693C180.101 38.9548 180.423 38.3312 180.861 37.7943C181.294 37.2574 181.847 36.832 182.514 36.514C183.182 36.196 183.982 36.0391 184.901 36.0391C185.82 36.0391 186.589 36.2043 187.257 36.5305C187.924 36.8485 188.477 37.2739 188.914 37.8108C189.361 38.3477 189.688 38.9672 189.9 39.6693C190.121 40.3714 190.227 41.1107 190.218 41.8871C190.209 42.7585 190.099 43.5474 189.882 44.2495C189.67 44.9433 189.343 45.5545 188.897 46.079ZM184.901 37.6332C184.287 37.6332 183.756 37.7613 183.31 38.0215C182.877 38.2693 182.514 38.5955 182.227 39.0044C181.948 39.4009 181.745 39.8552 181.604 40.3714C181.475 40.8753 181.413 41.3833 181.413 41.8913C181.413 42.3992 181.475 42.9072 181.604 43.4235C181.745 43.9315 181.948 44.3858 182.227 44.7905C182.514 45.1952 182.872 45.5298 183.31 45.7858C183.756 46.0336 184.287 46.1575 184.901 46.1575C185.515 46.1575 186.041 46.0336 186.474 45.7858C186.921 45.5298 187.279 45.1952 187.557 44.7905C187.836 44.3858 188.035 43.9273 188.163 43.4235C188.3 42.9072 188.371 42.3992 188.371 41.8913C188.371 41.3833 188.304 40.8959 188.176 40.3879C188.048 39.8841 187.84 39.4256 187.553 39.0209C187.279 38.6162 186.916 38.2816 186.47 38.0256C186.037 37.7695 185.511 37.6374 184.896 37.6374L184.901 37.6332Z" fill="white"/>
<path d="M201.419 46.079C200.941 46.6449 200.367 47.062 199.686 47.3304C199.018 47.6071 198.263 47.7434 197.423 47.7434C196.49 47.7434 195.681 47.5865 195.005 47.2685C194.338 46.9629 193.785 46.5416 193.352 46.0047C192.928 45.4678 192.609 44.8483 192.397 44.1462C192.194 43.4317 192.097 42.6801 192.097 41.8871C192.097 41.0942 192.203 40.3755 192.415 39.6693C192.627 38.9548 192.95 38.3312 193.387 37.7943C193.821 37.2574 194.373 36.832 195.045 36.514C195.712 36.196 196.508 36.0391 197.432 36.0391C198.355 36.0391 199.12 36.2043 199.788 36.5305C200.459 36.8485 201.008 37.2739 201.441 37.8108C201.887 38.3477 202.219 38.9672 202.426 39.6693C202.652 40.3714 202.758 41.1107 202.745 41.8871C202.736 42.7585 202.621 43.5474 202.409 44.2495C202.197 44.9433 201.869 45.5545 201.423 46.079H201.419ZM197.427 37.6332C196.813 37.6332 196.282 37.7613 195.836 38.0215C195.403 38.2693 195.04 38.5955 194.753 39.0044C194.479 39.4009 194.271 39.8552 194.134 40.3714C194.006 40.8753 193.94 41.3833 193.94 41.8913C193.94 42.3992 194.006 42.9072 194.134 43.4235C194.271 43.9315 194.479 44.3858 194.753 44.7905C195.04 45.1952 195.398 45.5298 195.836 45.7858C196.282 46.0336 196.808 46.1575 197.427 46.1575C198.046 46.1575 198.568 46.0336 199.005 45.7858C199.452 45.5298 199.81 45.1952 200.088 44.7905C200.367 44.3858 200.566 43.9273 200.694 43.4235C200.831 42.9072 200.901 42.3992 200.901 41.8913C200.901 41.3833 200.84 40.8959 200.711 40.3879C200.583 39.8841 200.375 39.4256 200.088 39.0209C199.814 38.6162 199.452 38.2816 199.005 38.0256C198.572 37.7695 198.046 37.6374 197.427 37.6374V37.6332Z" fill="white"/>
<path d="M212.133 46.2138C211.846 46.4327 211.523 46.6186 211.161 46.7797C210.803 46.9407 210.414 47.0688 209.998 47.1679C209.587 47.2753 209.154 47.3537 208.708 47.4033C208.261 47.4652 207.824 47.4941 207.386 47.4941H205.441C205.26 47.4941 205.149 47.4735 205.11 47.4363C205.079 47.395 205.061 47.3 205.061 47.1514V36.6695C205.061 36.4795 205.079 36.3721 205.11 36.3432C205.154 36.3019 205.273 36.2812 205.477 36.2812H208.182C210.25 36.2812 211.788 36.8264 212.796 37.9167C213.243 38.3917 213.57 38.9451 213.782 39.5811C214.007 40.2089 214.118 40.9646 214.118 41.8567C214.118 42.7488 213.941 43.6161 213.592 44.3677C213.251 45.1235 212.765 45.7348 212.129 46.2097L212.133 46.2138ZM211.435 39.0318C210.754 38.2471 209.662 37.8548 208.155 37.8548H206.917V45.9H207.634C208.248 45.9 208.827 45.8298 209.371 45.6893C209.91 45.5407 210.387 45.3094 210.803 44.9914C211.28 44.6527 211.643 44.2232 211.899 43.6987C212.168 43.1618 212.297 42.5299 212.297 41.7948C212.297 41.2 212.23 40.6755 212.093 40.2212C211.952 39.7546 211.735 39.3581 211.439 39.0318H211.435Z" fill="white"/>
<path d="M218.555 42.9392V47.2964C218.555 47.4244 218.485 47.4905 218.348 47.4905H216.933C216.805 47.4905 216.743 47.4285 216.743 47.2964V36.4552C216.743 36.4056 216.761 36.3643 216.792 36.3354C216.836 36.2941 216.885 36.2734 216.933 36.2734H220.147C221.322 36.2734 222.251 36.5419 222.931 37.0788C223.621 37.6116 223.966 38.4458 223.966 39.5774C223.966 40.1226 223.868 40.6099 223.665 41.0353C223.475 41.4524 223.201 41.8035 222.838 42.0884C222.489 42.3652 222.069 42.5799 221.579 42.7286C221.101 42.8649 220.575 42.9351 220.005 42.9351H218.555V42.9392ZM218.555 37.8387V41.3946H219.846C220.558 41.3946 221.119 41.2542 221.535 40.9775C221.95 40.6884 222.153 40.2217 222.153 39.565C222.153 38.9992 221.99 38.5738 221.658 38.2847C221.331 37.9874 220.898 37.8387 220.368 37.8387H218.555Z" fill="white"/>
<path d="M225.977 47.4941C225.924 47.4941 225.875 47.4735 225.831 47.4363C225.8 47.4074 225.782 47.3661 225.782 47.3166V36.463C225.782 36.4134 225.8 36.3721 225.831 36.3432C225.875 36.3019 225.919 36.2812 225.977 36.2812H227.409C227.462 36.2812 227.502 36.3019 227.537 36.3432C227.577 36.3721 227.599 36.4134 227.599 36.463V45.933H231.723C231.851 45.933 231.913 45.9991 231.913 46.1271V47.3166C231.913 47.3661 231.891 47.4033 231.851 47.4363C231.82 47.4735 231.776 47.4941 231.723 47.4941H225.981H225.977Z" fill="white"/>
<path d="M241.911 47.49C241.836 47.49 241.783 47.4818 241.752 47.4611C241.721 47.4529 241.69 47.4115 241.659 47.3413L240.514 44.6651H235.325L234.18 47.3413C234.158 47.4115 234.131 47.4487 234.1 47.4611C234.07 47.4818 234.016 47.49 233.941 47.49H232.478C232.284 47.49 232.222 47.4198 232.284 47.2835L236.929 36.4465C236.96 36.3639 236.982 36.3226 236.996 36.3102C237.018 36.2936 237.08 36.2812 237.186 36.2812H238.666C238.759 36.2812 238.817 36.2936 238.839 36.3102C238.861 36.3184 238.887 36.3639 238.918 36.4465L243.564 47.2835C243.617 47.4198 243.555 47.49 243.374 47.49H241.911ZM235.975 43.104H239.842L237.915 38.5238L235.975 43.104Z" fill="white"/>
<path d="M252.183 47.4918C252.099 47.4918 252.037 47.4753 251.993 47.4464C251.949 47.4175 251.896 47.3514 251.834 47.2523L246.839 39.2236V47.2523C246.839 47.3514 246.822 47.4175 246.791 47.4464C246.76 47.4753 246.689 47.4918 246.583 47.4918H245.266C245.177 47.4918 245.115 47.4753 245.071 47.4464C245.027 47.4175 245.009 47.3514 245.009 47.2523V36.5308C245.009 36.4111 245.031 36.3409 245.071 36.3078C245.115 36.2665 245.195 36.25 245.31 36.25H246.773C246.857 36.25 246.919 36.2665 246.963 36.2954C247.007 36.3161 247.06 36.3822 247.122 36.4895L252.121 44.5058V36.4895C252.121 36.3904 252.134 36.3285 252.165 36.2954C252.196 36.2665 252.267 36.25 252.373 36.25H253.695C253.801 36.25 253.867 36.2665 253.885 36.2954C253.916 36.3285 253.933 36.3904 253.933 36.4895V47.211C253.933 47.3307 253.911 47.4051 253.867 47.434C253.836 47.4712 253.761 47.4918 253.646 47.4918H252.179H252.183Z" fill="white"/>
<path d="M72.6999 14.9175H62.5913C62.0564 14.9175 61.61 14.8886 61.252 14.8225C60.9161 14.7606 60.6509 14.6573 60.4475 14.5086C60.2663 14.3434 60.147 14.1121 60.0762 13.823C60.0099 13.5339 59.979 13.1581 59.979 12.6956V1.34224C59.979 0.945766 60.1823 0.747532 60.5801 0.747532H63.9615C64.4079 0.747532 64.6333 0.945766 64.6333 1.34224V4.59667H70.6269V1.31334C70.6269 0.896209 70.8391 0.689706 71.2634 0.689706H74.6094C75.0558 0.689706 75.2812 0.900339 75.2812 1.31334V6.28583H80.1345V0.594718C80.1345 0.32214 80.2052 0.156944 80.3378 0.0949941C80.4704 0.0330444 80.6384 0 80.8417 0H84.1523C84.444 0 84.612 0.0619525 84.6562 0.189982C84.7225 0.293231 84.7579 0.429519 84.7579 0.594718V15.0125C84.7579 15.409 84.5457 15.6072 84.1214 15.6072H80.771C80.3466 15.6072 80.1345 15.4214 80.1345 15.0455V9.85414H75.2812V12.7947C75.2812 13.5876 75.1 14.1369 74.742 14.4508C74.4061 14.7647 73.7298 14.9175 72.6999 14.9175ZM82.1721 29.4592H67.3075C66.7726 29.4592 66.335 29.4302 66.0035 29.3683C65.6676 29.3063 65.4024 29.1907 65.1991 29.0255C65.0223 28.8768 64.8853 28.6621 64.7969 28.3688C64.7306 28.0798 64.6952 27.6915 64.6952 27.2124V17.9572C64.6952 17.5813 64.9074 17.3955 65.3317 17.3955H68.6467C68.8943 17.3955 69.0711 17.4368 69.1816 17.5194C69.2921 17.5813 69.3495 17.73 69.3495 17.9572V20.241H80.0947V17.8333C80.0947 17.602 80.1522 17.4492 80.2627 17.3666C80.3732 17.284 80.5279 17.2427 80.7312 17.2427H84.1479C84.3468 17.2427 84.4971 17.284 84.581 17.3666C84.6916 17.4492 84.749 17.6061 84.749 17.8333V27.3116C84.749 28.1252 84.581 28.6869 84.2495 29.0007C83.9357 29.3105 83.2418 29.4674 82.1721 29.4674V29.4592ZM80.0947 23.7061H69.3495V25.6472C69.3495 25.833 69.46 25.928 69.6855 25.928H79.7632C79.9842 25.928 80.0947 25.833 80.0947 25.6472V23.7061ZM70.6225 8.06585H64.6289V10.9734C64.6289 11.2666 64.7969 11.4111 65.1284 11.4111H70.1142C70.4501 11.4111 70.6181 11.2666 70.6181 10.9734V8.06585H70.6225Z" fill="white"/>
<path d="M112.613 12.9157H95.8079C95.2951 12.9157 94.8797 12.8951 94.5703 12.8496C94.2564 12.7877 94.0089 12.6844 93.8321 12.5358C93.6509 12.3706 93.5315 12.1517 93.4608 11.8791C93.3945 11.59 93.3636 11.2018 93.3636 10.7227V2.61968C93.3636 2.1819 93.3945 1.82672 93.4608 1.55827C93.5492 1.28569 93.6862 1.07919 93.863 0.930511C94.0619 0.785962 94.3095 0.690975 94.6012 0.649675C94.8929 0.587726 95.2377 0.554688 95.6399 0.554688H112.609C113.077 0.554688 113.457 0.575335 113.749 0.616635C114.041 0.657935 114.262 0.752921 114.421 0.89747C114.598 1.04202 114.721 1.25265 114.788 1.5211C114.854 1.79368 114.889 2.15712 114.889 2.61554V10.7186C114.889 11.177 114.854 11.5528 114.788 11.8461C114.721 12.1393 114.598 12.3664 114.421 12.5316C114.266 12.6803 114.041 12.7836 113.749 12.8455C113.457 12.8909 113.081 12.9116 112.609 12.9116L112.613 12.9157ZM118.509 19.2676H106.456V29.1507C106.456 29.5678 106.235 29.7743 105.788 29.7743H102.473C102.027 29.7743 101.806 29.5678 101.806 29.1507V19.2676H89.7568C89.4651 19.2676 89.275 19.2057 89.1866 19.0818C89.1203 18.9579 89.085 18.7803 89.085 18.549V16.389C89.085 16.1578 89.1159 15.9926 89.1866 15.8893C89.275 15.7654 89.4651 15.6993 89.7568 15.6993H118.509C118.978 15.6993 119.212 15.9265 119.212 16.3849V18.5449C119.212 19.024 118.978 19.2635 118.509 19.2635V19.2676ZM110.306 4.72184C110.306 4.44926 110.275 4.28406 110.204 4.22211C110.16 4.13951 110.005 4.09821 109.735 4.09821H98.6234C98.3317 4.09821 98.1417 4.13125 98.0533 4.1932C97.987 4.25515 97.9516 4.43274 97.9516 4.72597V8.76096C97.9516 9.05419 97.987 9.23177 98.0533 9.29372C98.1417 9.35567 98.3317 9.38872 98.6234 9.38872H109.735C110.005 9.38872 110.16 9.35567 110.204 9.29372C110.27 9.21112 110.306 9.03354 110.306 8.76096V4.72597V4.72184Z" fill="white"/>
<path d="M135.593 14.9175H125.484C124.949 14.9175 124.503 14.8886 124.145 14.8225C123.809 14.7606 123.544 14.6573 123.341 14.5086C123.164 14.3434 123.04 14.1121 122.974 13.823C122.907 13.5339 122.872 13.1581 122.872 12.6956V1.34224C122.872 0.945766 123.071 0.747532 123.473 0.747532H126.855C127.301 0.747532 127.526 0.945766 127.526 1.34224V4.59667H133.52V1.31334C133.52 0.896209 133.732 0.689706 134.156 0.689706H137.502C137.949 0.689706 138.17 0.900339 138.17 1.31334V6.28583H143.023V0.594718C143.023 0.32214 143.089 0.156944 143.222 0.0949941C143.355 0.0330444 143.523 0 143.721 0H147.037C147.328 0 147.492 0.0619525 147.54 0.189982C147.607 0.293231 147.642 0.429519 147.642 0.594718V15.0125C147.642 15.409 147.43 15.6072 147.006 15.6072H143.66C143.235 15.6072 143.023 15.4214 143.023 15.0455V9.85414H138.17V12.7947C138.17 13.5876 137.993 14.1369 137.635 14.4508C137.299 14.7647 136.618 14.9175 135.593 14.9175ZM145.065 29.4592H130.205C129.67 29.4592 129.233 29.4302 128.897 29.3683C128.561 29.3063 128.295 29.1907 128.097 29.0255C127.915 28.8768 127.783 28.6621 127.694 28.3688C127.628 28.0798 127.597 27.6915 127.597 27.2124V17.9572C127.597 17.5813 127.809 17.3955 128.234 17.3955H131.544C131.787 17.3955 131.969 17.4368 132.079 17.5194C132.19 17.5813 132.247 17.73 132.247 17.9572V20.241H142.992V17.8333C142.992 17.602 143.05 17.4492 143.16 17.3666C143.271 17.284 143.425 17.2427 143.629 17.2427H147.041C147.24 17.2427 147.386 17.284 147.474 17.3666C147.585 17.4492 147.642 17.6061 147.642 17.8333V27.3116C147.642 28.1252 147.474 28.6869 147.138 29.0007C146.824 29.3105 146.135 29.4674 145.061 29.4674L145.065 29.4592ZM142.992 23.7061H132.247V25.6472C132.247 25.833 132.358 25.928 132.583 25.928H142.656C142.882 25.928 142.992 25.833 142.992 25.6472V23.7061ZM133.52 8.06585H127.531V10.9734C127.531 11.2666 127.699 11.4111 128.03 11.4111H133.021C133.352 11.4111 133.52 11.2666 133.52 10.9734V8.06585Z" fill="white"/>
<path d="M178.154 21.2033H174.773C174.529 21.2033 174.361 21.162 174.273 21.0794C174.185 20.9762 174.14 20.8068 174.14 20.5797V0.594718C174.14 0.19824 174.353 0 174.777 0H178.158C178.561 0 178.759 0.19824 178.759 0.594718V20.6127C178.759 20.8399 178.715 20.9968 178.627 21.0794C178.561 21.162 178.401 21.2033 178.158 21.2033H178.154ZM161.853 16.4497C160.646 16.4497 159.541 16.2639 158.538 15.888C157.534 15.5122 156.664 14.9918 155.925 14.3269C155.187 13.6372 154.617 12.8484 154.219 11.948C153.817 11.0312 153.618 10.04 153.618 8.97445C153.618 7.975 153.817 7.0251 154.219 6.1289C154.622 5.21204 155.192 4.41082 155.925 3.72112C156.664 3.03141 157.534 2.49038 158.538 2.0939C159.541 1.67678 160.646 1.47028 161.853 1.47028C163.059 1.47028 164.209 1.67678 165.23 2.0939C166.26 2.49038 167.139 3.03141 167.877 3.72112C168.633 4.41082 169.217 5.21204 169.619 6.1289C170.043 7.0251 170.255 7.975 170.255 8.97445C170.255 10.0359 170.043 11.0271 169.619 11.948C169.217 12.8442 168.638 13.6372 167.877 14.3269C167.139 14.9918 166.26 15.5122 165.23 15.888C164.204 16.2639 163.077 16.4497 161.853 16.4497ZM179.095 29.4922H161.521C161.031 29.4922 160.628 29.4509 160.315 29.3683C160.027 29.3063 159.789 29.1824 159.612 28.9925C159.435 28.8025 159.311 28.563 159.24 28.2739C159.174 27.9806 159.139 27.6172 159.139 27.1794V20.1089C159.139 19.6711 159.364 19.4522 159.811 19.4522H163.126C163.572 19.4522 163.798 19.6711 163.798 20.1089V25.4283C163.798 25.7422 163.974 25.8991 164.332 25.8991H179.095C179.272 25.8991 179.427 25.9322 179.564 25.99C179.701 26.0767 179.763 26.2295 179.763 26.4608V28.9305C179.763 29.2237 179.696 29.3889 179.564 29.4302C179.431 29.4715 179.272 29.4922 179.095 29.4922ZM161.853 5.25334C161.318 5.25334 160.814 5.34833 160.345 5.53418C159.899 5.72416 159.497 5.99261 159.139 6.34779C158.803 6.68231 158.538 7.08705 158.334 7.56613C158.158 8.02456 158.065 8.52428 158.065 9.06944C158.065 9.6146 158.153 10.1226 158.334 10.6017C158.533 11.0601 158.803 11.469 159.139 11.8241C159.497 12.1587 159.895 12.4189 160.345 12.6047C160.814 12.7947 161.318 12.8855 161.853 12.8855C162.967 12.8855 163.886 12.5304 164.598 11.82C165.336 11.089 165.703 10.1721 165.703 9.06944C165.703 7.96674 165.336 7.05814 164.598 6.34779C163.886 5.61678 162.967 5.25334 161.853 5.25334Z" fill="white"/>
<path d="M222.2 15.1357H210.084V18.1671C210.084 18.3612 210.04 18.543 210.005 18.7288C209.969 18.9147 209.925 19.0922 209.881 19.2616C210.239 20.1165 210.783 20.9094 211.521 21.6404C212.277 22.3508 213.125 22.9868 214.062 23.5485C214.999 24.0895 215.994 24.5479 217.041 24.9238C218.093 25.2996 219.084 25.5804 220.021 25.7704C220.334 25.8324 220.502 25.915 220.524 26.0182C220.569 26.1421 220.547 26.3115 220.458 26.518L219.358 29.1157C219.221 29.4296 218.889 29.5204 218.35 29.3965C217.435 29.2066 216.489 28.9257 215.503 28.554C214.544 28.1989 213.594 27.7611 212.657 27.2407C211.742 26.741 210.88 26.1586 210.08 25.4896C209.275 24.8453 208.573 24.1432 207.972 23.3957C206.88 24.8783 205.412 26.1339 203.587 27.1788C201.779 28.2443 199.671 29.0744 197.262 29.6815C196.948 29.7641 196.736 29.7848 196.625 29.7435C196.537 29.7022 196.457 29.5989 196.391 29.4296L195.255 26.8649C195.096 26.5303 195.264 26.3032 195.754 26.1752C198.742 25.3616 201.076 24.2589 202.751 22.8588C204.422 21.4629 205.359 19.7737 205.563 17.7913V15.1316H193.447C193.178 15.1316 193.001 15.0903 192.912 15.0077C192.824 14.9044 192.78 14.7351 192.78 14.5038V12.253C192.78 12.0052 192.811 11.8276 192.881 11.7202C192.948 11.617 193.138 11.5633 193.452 11.5633H213.399C213.421 11.5633 213.43 11.555 213.43 11.5344C213.519 11.076 213.612 10.5225 213.7 9.87825C213.788 9.22984 213.868 8.59796 213.934 7.9702C214 7.34657 214.045 6.78077 214.067 6.28104C214.111 5.76066 214.137 5.40548 214.137 5.21551C214.137 4.90163 214.089 4.68274 214 4.55884C213.912 4.41429 213.656 4.33995 213.231 4.33995H198.102C197.876 4.33995 197.699 4.3193 197.567 4.278C197.456 4.21605 197.399 4.05085 197.399 3.77827V1.33745C197.399 1.1103 197.456 0.961625 197.567 0.899675C197.699 0.837726 197.881 0.804688 198.102 0.804688H216.343C217.148 0.804688 217.74 0.969883 218.116 1.30441C218.496 1.61829 218.686 2.17171 218.686 2.96467C218.686 3.52634 218.664 4.1541 218.619 4.83967C218.597 5.50873 218.549 6.21496 218.482 6.96662C218.416 7.71828 218.323 8.49058 218.213 9.27941C218.124 10.0517 218.001 10.8116 217.846 11.5633H222.2C222.668 11.5633 222.902 11.7946 222.902 12.253V14.5038C222.902 14.7558 222.836 14.921 222.699 15.0077C222.567 15.0903 222.399 15.1316 222.2 15.1316V15.1357Z" fill="white"/>
<path d="M249.83 29.8684H231.15C230.66 29.8684 230.258 29.8271 229.944 29.7445C229.652 29.6826 229.418 29.567 229.241 29.4018C229.082 29.2572 228.971 29.0466 228.905 28.774C228.861 28.5262 228.839 28.2123 228.839 27.8365V23.8304C228.839 23.4339 228.861 23.1118 228.905 22.8599C228.971 22.6079 229.082 22.4097 229.241 22.2651C229.418 22.0958 229.656 21.9843 229.944 21.9182C230.231 21.8563 230.624 21.8274 231.115 21.8274H244.773C244.972 21.8274 245.074 21.7117 245.074 21.4804V20.7907C245.074 20.5429 244.963 20.4149 244.738 20.4149H229.44C229.197 20.4149 229.015 20.3736 228.905 20.291C228.817 20.2084 228.772 20.0432 228.772 19.7913V17.6643C228.772 17.2679 228.998 17.0696 229.44 17.0696H247.248C248.252 17.0696 248.901 17.2266 249.189 17.5363C249.48 17.8295 249.626 18.3499 249.626 19.1016V23.0127C249.626 23.4298 249.595 23.7726 249.525 24.0452C249.48 24.293 249.379 24.4953 249.224 24.6399C249.069 24.7844 248.835 24.8794 248.521 24.9207C248.207 24.9827 247.805 25.0116 247.315 25.0116H233.758C233.537 25.0116 233.422 25.1148 233.422 25.3255V26.168C233.422 26.3951 233.542 26.5108 233.789 26.5108H249.794C250.037 26.5108 250.219 26.5438 250.329 26.6057C250.44 26.6677 250.497 26.8329 250.497 27.1055V29.2324C250.497 29.6495 250.272 29.856 249.825 29.856L249.83 29.8684ZM249.998 10.2262H228.507C228.017 10.2262 227.773 9.9867 227.773 9.50763V7.38069C227.773 6.98421 228.017 6.78597 228.507 6.78597H231.955V3.72153H229.108C228.596 3.72153 228.339 3.49025 228.339 3.03182V0.937916C228.339 0.706637 228.406 0.541441 228.538 0.438191C228.697 0.334942 228.887 0.28125 229.108 0.28125H249.427C249.896 0.28125 250.13 0.500138 250.13 0.937916V3.06485C250.13 3.50263 249.896 3.72153 249.427 3.72153H246.55V6.78597H249.998C250.488 6.78597 250.736 6.98421 250.736 7.38069V9.54067C250.736 9.9991 250.488 10.2262 249.998 10.2262ZM253.613 15.2937H224.892C224.578 15.2937 224.388 15.24 224.321 15.1368C224.255 15.0335 224.22 14.8642 224.22 14.6329V12.506C224.22 12.2747 224.264 12.1095 224.352 12.0063C224.441 11.903 224.622 11.8493 224.887 11.8493H253.609C253.808 11.8493 253.976 11.903 254.108 12.0063C254.245 12.0889 254.311 12.2541 254.311 12.506V14.6329C254.311 15.0707 254.077 15.2896 253.609 15.2896L253.613 15.2937ZM236.543 6.78597H241.966V3.72153H236.543V6.78597Z" fill="white"/>
<path d="M283.554 21.2653H280.239C279.996 21.2653 279.828 21.224 279.735 21.1414C279.647 21.0588 279.603 20.9018 279.603 20.6706V12.2867H277.194V20.0139C277.194 20.2452 277.15 20.4021 277.061 20.4847C276.973 20.5467 276.805 20.5756 276.557 20.5756H273.41C273.163 20.5756 272.986 20.5425 272.876 20.4847C272.787 20.4021 272.743 20.2452 272.743 20.0139V1.12336C272.743 0.871427 272.787 0.706231 272.876 0.623631C272.986 0.541032 273.163 0.499731 273.41 0.499731H276.557C276.982 0.499731 277.194 0.706227 277.194 1.12336V8.75557H279.603V0.594718C279.603 0.19824 279.828 0 280.275 0H283.554C283.802 0 283.965 0.0413011 284.054 0.123901C284.147 0.2065 284.186 0.363439 284.186 0.594718V20.6747C284.186 20.9018 284.142 21.0588 284.054 21.1455C283.965 21.2281 283.802 21.2694 283.554 21.2694V21.2653ZM284.323 29.4922H265.043C264.575 29.4922 264.186 29.4509 263.872 29.3683C263.585 29.3064 263.346 29.1907 263.169 29.0255C263.01 28.8603 262.899 28.629 262.833 28.3399C262.767 28.0467 262.736 27.6833 262.736 27.2455V20.8977C262.736 20.4599 262.957 20.241 263.403 20.241H266.683C267.152 20.241 267.39 20.4599 267.39 20.8977V25.4613C267.39 25.7752 267.567 25.9322 267.925 25.9322H284.328C284.505 25.9322 284.664 25.9611 284.796 26.023C284.933 26.1056 285 26.2626 285 26.4938V28.9305C285 29.2238 284.933 29.389 284.796 29.4344C284.664 29.4757 284.509 29.4963 284.328 29.4963L284.323 29.4922ZM270.833 17.1394C270.144 17.284 269.339 17.4203 268.424 17.5483C267.51 17.6515 266.55 17.7465 265.547 17.8291C264.544 17.8911 263.527 17.9324 262.502 17.953C261.498 17.9737 260.552 17.9613 259.655 17.9241C258.718 17.8828 258.059 17.7052 257.684 17.3914C257.326 17.0568 257.149 16.4951 257.149 15.7022V9.72611C257.149 9.06118 257.304 8.59862 257.617 8.35082C257.931 8.07825 258.444 7.94609 259.16 7.94609H264.548C264.747 7.94609 264.871 7.92544 264.915 7.88414C264.981 7.82219 265.017 7.69829 265.017 7.50831V5.60026C265.017 5.41028 264.986 5.29877 264.915 5.25747C264.871 5.19552 264.747 5.16248 264.548 5.16248H258.02C257.573 5.16248 257.352 4.96424 257.352 4.56777V2.18889C257.352 1.96174 257.396 1.81306 257.485 1.75111C257.595 1.66851 257.772 1.62721 258.02 1.62721H267.191C267.682 1.62721 268.066 1.6809 268.363 1.75111C268.672 1.82545 268.911 1.9287 269.065 2.0939C269.225 2.26323 269.313 2.48212 269.366 2.75057C269.423 3.02315 269.468 3.36594 269.468 3.78306V9.0364C269.468 9.91196 269.278 10.5067 268.897 10.8206C268.539 11.1303 267.96 11.2872 267.156 11.2872H262.033C261.746 11.2872 261.6 11.4235 261.6 11.6961V14.1039C261.6 14.3765 261.768 14.5086 262.104 14.5086C263.598 14.5499 264.995 14.521 266.285 14.4178C267.602 14.3145 268.942 14.1369 270.303 13.885C270.546 13.8396 270.714 13.8644 270.807 13.9469C270.895 14.0295 270.962 14.1535 271.006 14.3228L271.342 16.4167C271.43 16.8132 271.262 17.0527 270.842 17.1353L270.833 17.1394Z" fill="white"/>
<path d="M0 13.3359V47.3873H8.26696H12.233V39.685H8.26696V21.0382H34.1654V13.3359H8.26696H2.9362H0Z" fill="white"/>
<path d="M22.0176 23.2656V47.3854H13.666V23.2656H22.0176Z" fill="#DBB275"/>
<path d="M13.666 0.5625V8.2648V11.9583H21.9357V8.2648H39.5617V26.9116H37.9905V34.6139H39.5617H43.6948H47.8314V0.5625H43.6948H39.5617H13.666Z" fill="#DBB275"/>
<path d="M24.2954 26.8125V34.4026H28.2302V39.7951H24.2954V47.3852H32.986H36.4431V34.4026V32.205V26.8125H24.2954Z" fill="white"/>
</svg>
