<svg width="197" height="33" viewBox="0 0 197 33" fill="none" xmlns="http://www.w3.org/2000/svg">
<path d="M63.1075 32.3186C63.0708 32.3186 63.0372 32.3045 63.0097 32.2792C62.9883 32.2595 62.9761 32.2314 62.9761 32.1977V24.8112C62.9761 24.7774 62.9883 24.7493 63.0097 24.7297C63.0372 24.7016 63.0708 24.6875 63.1075 24.6875H64.0974C64.134 24.6875 64.1615 24.7016 64.186 24.7297C64.2135 24.7493 64.2287 24.7774 64.2287 24.8112V31.2561H67.0762C67.1648 31.2561 67.2107 31.3011 67.2107 31.3882V32.1977C67.2107 32.2314 67.1954 32.2567 67.1648 32.2792C67.1435 32.3045 67.1129 32.3186 67.0762 32.3186H63.1075Z" fill="white"/>
<path d="M74.1218 32.3157C74.0698 32.3157 74.0332 32.3101 74.0118 32.2961C73.9904 32.2905 73.966 32.2623 73.9446 32.2146L73.1533 30.3932H69.5664L68.7751 32.2146C68.7598 32.2623 68.7415 32.2876 68.7201 32.2961C68.6987 32.3101 68.662 32.3157 68.6101 32.3157H67.5988C67.4674 32.3157 67.4246 32.268 67.4674 32.1752L70.6785 24.7999C70.6999 24.7437 70.7152 24.7156 70.7213 24.7072C70.7365 24.6959 70.7793 24.6875 70.8526 24.6875H71.8762C71.9403 24.6875 71.9831 24.6959 71.9953 24.7072C72.0106 24.7128 72.0289 24.7437 72.0503 24.7999L75.2614 32.1752C75.2981 32.268 75.2522 32.3157 75.127 32.3157H74.1157H74.1218ZM70.0186 29.3308H72.6919L71.3598 26.2137L70.0186 29.3308Z" fill="white"/>
<path d="M83.486 32.2089C83.4707 32.2623 83.4524 32.2933 83.431 32.2989C83.4096 32.3129 83.3699 32.3186 83.3119 32.3186H82.267C82.2089 32.3186 82.1692 32.3129 82.1448 32.2989C82.1234 32.2933 82.105 32.2623 82.0898 32.2089L80.2627 26.4611L78.4357 32.2089C78.4204 32.2623 78.402 32.2933 78.3807 32.2989C78.3654 32.3129 78.3257 32.3186 78.2585 32.3186H77.2135C77.1555 32.3186 77.1127 32.3129 77.0913 32.2989C77.07 32.2933 77.0516 32.2623 77.0363 32.2089L74.7143 24.8308C74.6991 24.7831 74.6991 24.7493 74.7143 24.7297C74.7266 24.7016 74.7846 24.6875 74.8793 24.6875H75.7929C75.8448 24.6875 75.8815 24.6959 75.9028 24.7072C75.9242 24.7128 75.9426 24.7409 75.9578 24.7887L77.7849 30.486L79.5661 24.7887C79.5814 24.7409 79.5997 24.7128 79.6211 24.7072C79.6517 24.6959 79.6914 24.6875 79.7433 24.6875H80.776C80.8279 24.6875 80.8646 24.6959 80.886 24.7072C80.9135 24.7128 80.9379 24.7409 80.9501 24.7887L82.7314 30.486L84.5584 24.7887C84.5706 24.7409 84.592 24.7128 84.6134 24.7072C84.6348 24.6959 84.6745 24.6875 84.7234 24.6875H85.6369C85.7316 24.6875 85.7866 24.7016 85.8019 24.7297C85.8141 24.7493 85.8141 24.7831 85.8019 24.8308L83.4799 32.2089H83.486Z" fill="white"/>
<path d="M88.0966 25.7584V27.8552H90.825C90.9197 27.8552 90.9686 27.8945 90.9686 27.976V28.7968C90.9686 28.8783 90.9197 28.9204 90.825 28.9204H88.0966V32.1668C88.0966 32.268 88.0447 32.3186 87.9408 32.3186H87.0395C86.9295 32.3186 86.8745 32.268 86.8745 32.1668V24.8702C86.8745 24.7971 86.8898 24.7493 86.9173 24.7297C86.9478 24.7016 86.9906 24.6875 87.0487 24.6875H90.9747C91.0113 24.6875 91.0419 24.7016 91.0633 24.7297C91.0938 24.7493 91.1061 24.7774 91.1061 24.8112V25.6207C91.1061 25.7162 91.0633 25.7612 90.9747 25.7612H88.0936L88.0966 25.7584Z" fill="white"/>
<path d="M93.5287 32.1865C93.5287 32.2736 93.4798 32.3186 93.3851 32.3186H92.383C92.2883 32.3186 92.2424 32.2764 92.2424 32.1865V24.8196C92.2424 24.7325 92.2883 24.6875 92.383 24.6875H93.3851C93.4798 24.6875 93.5287 24.7325 93.5287 24.8196V32.1865Z" fill="white"/>
<path d="M99.6364 32.3214C99.5569 32.3214 99.4958 32.3157 99.4591 32.3017C99.4317 32.2961 99.398 32.268 99.3614 32.2202L97.6779 29.224H96.4253V32.1893C96.4253 32.2764 96.3764 32.3214 96.2817 32.3214H95.304C95.2154 32.3214 95.1726 32.2792 95.1726 32.1893V24.8112C95.1726 24.7774 95.1848 24.7493 95.2062 24.7297C95.2368 24.7016 95.2673 24.6875 95.304 24.6875H97.5252C98.3379 24.6875 98.9856 24.8702 99.4591 25.2356C99.9358 25.5982 100.174 26.1659 100.174 26.9361C100.174 27.4279 100.058 27.8467 99.8227 28.1924C99.5875 28.5297 99.2667 28.7855 98.8542 28.9598L100.69 32.178C100.752 32.2708 100.706 32.3186 100.559 32.3186H99.6333L99.6364 32.3214ZM96.4253 25.7528V28.1728H97.3296C97.8124 28.1728 98.1973 28.0772 98.4845 27.8889C98.7717 27.6921 98.9123 27.3745 98.9123 26.9276C98.9123 26.5426 98.7992 26.2531 98.5731 26.0563C98.3531 25.8539 98.0568 25.7528 97.681 25.7528H96.4283H96.4253Z" fill="white"/>
<path d="M109.395 32.3186C109.337 32.3186 109.3 32.3073 109.285 32.2876C109.27 32.2736 109.263 32.2455 109.263 32.2061V26.7112L106.877 32.1865C106.862 32.2202 106.844 32.2399 106.822 32.2455C106.81 32.2511 106.764 32.2539 106.691 32.2539H105.811C105.738 32.2539 105.692 32.2539 105.67 32.2455C105.655 32.2399 105.64 32.2174 105.625 32.1865L103.238 26.7112V32.2061C103.238 32.2455 103.232 32.2736 103.217 32.2876C103.202 32.3073 103.165 32.3186 103.107 32.3186H102.084C101.995 32.3186 101.952 32.282 101.952 32.2089V24.9011C101.952 24.8055 101.964 24.7493 101.986 24.7297C102.007 24.7016 102.077 24.6875 102.197 24.6875H103.504C103.556 24.6875 103.587 24.6987 103.593 24.7184C103.608 24.7297 103.626 24.7606 103.648 24.8084L106.254 30.7586L108.86 24.8084C108.881 24.7606 108.897 24.7297 108.906 24.7184C108.921 24.6987 108.952 24.6875 109.004 24.6875H110.314C110.431 24.6875 110.504 24.7016 110.522 24.7297C110.544 24.7493 110.556 24.8055 110.556 24.9011V32.2089C110.556 32.282 110.513 32.3186 110.424 32.3186H109.401H109.395Z" fill="white"/>
<path d="M122.145 32.0846C122.013 32.1464 121.851 32.197 121.662 32.2363C121.472 32.2841 121.262 32.3235 121.035 32.36C120.815 32.3937 120.586 32.4162 120.351 32.4303C120.125 32.4499 119.908 32.4612 119.703 32.4612C119.095 32.4612 118.53 32.3741 118.011 32.197C117.497 32.0227 117.054 31.7641 116.679 31.4269C116.306 31.0896 116.01 30.6764 115.799 30.1817C115.585 29.6898 115.481 29.1305 115.481 28.5037C115.481 27.9303 115.579 27.4047 115.777 26.9241C115.976 26.4407 116.257 26.0219 116.624 25.6677C116.99 25.3192 117.433 25.0437 117.956 24.847C118.475 24.6502 119.062 24.5547 119.716 24.5547C120.156 24.5547 120.55 24.5772 120.892 24.625C121.237 24.6643 121.564 24.7289 121.873 24.8161C121.955 24.8358 122.001 24.8582 122.016 24.8863C122.031 24.906 122.035 24.9285 122.028 24.9566L121.897 25.8167C121.891 25.8645 121.873 25.8982 121.842 25.9179C121.811 25.9376 121.756 25.9347 121.677 25.9066C121.332 25.8054 121.005 25.7352 120.696 25.6958C120.388 25.6481 120.058 25.6256 119.706 25.6256C119.266 25.6256 118.866 25.6958 118.506 25.8364C118.145 25.9713 117.84 26.168 117.58 26.4238C117.323 26.674 117.122 26.9747 116.975 27.326C116.837 27.6774 116.767 28.0681 116.767 28.5009C116.767 28.9647 116.837 29.3807 116.975 29.7461C117.122 30.103 117.323 30.4066 117.58 30.6567C117.843 30.8984 118.154 31.0868 118.515 31.2132C118.875 31.3341 119.269 31.3959 119.703 31.3959C120.033 31.3959 120.321 31.3819 120.562 31.3566C120.803 31.3313 120.983 31.2891 121.1 31.2357V29.2008H119.285C119.242 29.2008 119.205 29.1895 119.175 29.1699C119.153 29.1417 119.141 29.1136 119.141 29.0799V28.2704C119.141 28.2311 119.156 28.1945 119.184 28.1692C119.221 28.1411 119.257 28.1271 119.294 28.1271H122.111C122.221 28.1271 122.291 28.144 122.319 28.1777C122.349 28.2114 122.364 28.2789 122.364 28.38V31.7192C122.364 31.8204 122.343 31.8962 122.297 31.9525C122.254 32.0059 122.203 32.0508 122.141 32.0846H122.145Z" fill="white"/>
<path d="M130.571 31.3563C130.241 31.7413 129.841 32.0252 129.37 32.2079C128.909 32.3962 128.389 32.489 127.809 32.489C127.161 32.489 126.605 32.3822 126.138 32.1657C125.676 31.9577 125.294 31.6711 124.992 31.3057C124.699 30.9403 124.479 30.5187 124.332 30.0408C124.191 29.5546 124.124 29.043 124.124 28.5034C124.124 27.9637 124.198 27.4747 124.344 26.994C124.491 26.5078 124.714 26.0834 125.016 25.718C125.316 25.3526 125.698 25.0631 126.159 24.8467C126.62 24.6302 127.173 24.5234 127.809 24.5234C128.444 24.5234 128.976 24.6359 129.437 24.8579C129.899 25.0743 130.281 25.3638 130.583 25.7292C130.892 26.0946 131.118 26.5162 131.264 26.994C131.417 27.4719 131.491 27.975 131.484 28.5034C131.478 29.0965 131.402 29.6333 131.252 30.1111C131.106 30.5833 130.879 30.9993 130.571 31.3563ZM127.809 25.6084C127.384 25.6084 127.018 25.6955 126.709 25.8726C126.41 26.0412 126.159 26.2633 125.96 26.5415C125.768 26.8113 125.627 27.1205 125.53 27.4719C125.441 27.8148 125.398 28.1605 125.398 28.5062C125.398 28.8519 125.441 29.1976 125.53 29.549C125.627 29.8947 125.768 30.2039 125.96 30.4793C126.159 30.7548 126.407 30.9824 126.709 31.1567C127.018 31.3253 127.384 31.4097 127.809 31.4097C128.234 31.4097 128.597 31.3253 128.897 31.1567C129.205 30.9824 129.453 30.7548 129.645 30.4793C129.838 30.2039 129.975 29.8919 130.064 29.549C130.158 29.1976 130.207 28.8519 130.207 28.5062C130.207 28.1605 130.161 27.8288 130.073 27.4831C129.984 27.1402 129.841 26.8282 129.642 26.5528C129.453 26.2773 129.202 26.0496 128.894 25.8754C128.594 25.7011 128.231 25.6112 127.806 25.6112L127.809 25.6084Z" fill="white"/>
<path d="M139.227 31.3563C138.897 31.7413 138.499 32.0252 138.029 32.2079C137.568 32.3962 137.045 32.489 136.465 32.489C135.82 32.489 135.261 32.3822 134.793 32.1657C134.332 31.9577 133.95 31.6711 133.651 31.3057C133.357 30.9403 133.137 30.5187 132.991 30.0408C132.85 29.5546 132.783 29.043 132.783 28.5034C132.783 27.9637 132.856 27.4747 133.003 26.994C133.15 26.5078 133.373 26.0834 133.675 25.718C133.975 25.3526 134.356 25.0631 134.821 24.8467C135.282 24.6302 135.832 24.5234 136.471 24.5234C137.109 24.5234 137.638 24.6359 138.099 24.8579C138.564 25.0743 138.942 25.3638 139.242 25.7292C139.55 26.0946 139.78 26.5162 139.923 26.994C140.079 27.4719 140.152 27.975 140.143 28.5034C140.137 29.0965 140.058 29.6333 139.911 30.1111C139.764 30.5833 139.538 30.9993 139.23 31.3563H139.227ZM136.468 25.6084C136.043 25.6084 135.676 25.6955 135.368 25.8726C135.068 26.0412 134.818 26.2633 134.619 26.5415C134.43 26.8113 134.286 27.1205 134.191 27.4719C134.103 27.8148 134.057 28.1605 134.057 28.5062C134.057 28.8519 134.103 29.1976 134.191 29.549C134.286 29.8947 134.43 30.2039 134.619 30.4793C134.818 30.7548 135.065 30.9824 135.368 31.1567C135.676 31.3253 136.04 31.4097 136.468 31.4097C136.895 31.4097 137.256 31.3253 137.558 31.1567C137.867 30.9824 138.114 30.7548 138.307 30.4793C138.499 30.2039 138.637 29.8919 138.725 29.549C138.82 29.1976 138.869 28.8519 138.869 28.5062C138.869 28.1605 138.826 27.8288 138.738 27.4831C138.649 27.1402 138.505 26.8282 138.307 26.5528C138.117 26.2773 137.867 26.0496 137.558 25.8754C137.259 25.7011 136.895 25.6112 136.468 25.6112V25.6084Z" fill="white"/>
<path d="M146.633 31.4472C146.434 31.5962 146.211 31.7227 145.96 31.8323C145.713 31.9419 145.444 32.0291 145.157 32.0965C144.873 32.1696 144.573 32.223 144.265 32.2567C143.956 32.2989 143.654 32.3186 143.351 32.3186H142.007C141.882 32.3186 141.805 32.3045 141.778 32.2792C141.756 32.2511 141.744 32.1864 141.744 32.0853V24.9517C141.744 24.8224 141.756 24.7493 141.778 24.7297C141.808 24.7016 141.891 24.6875 142.031 24.6875H143.901C145.331 24.6875 146.394 25.0585 147.091 25.8005C147.399 26.1238 147.626 26.5004 147.772 26.9332C147.928 27.3605 148.004 27.8748 148.004 28.4819C148.004 29.0891 147.882 29.6793 147.641 30.1909C147.406 30.7052 147.069 31.1212 146.63 31.4444L146.633 31.4472ZM146.15 26.5594C145.679 26.0254 144.925 25.7584 143.883 25.7584H143.027V31.2336H143.522C143.947 31.2336 144.347 31.1858 144.723 31.0903C145.096 30.9891 145.426 30.8317 145.713 30.6153C146.043 30.3848 146.293 30.0925 146.471 29.7355C146.657 29.3701 146.746 28.9401 146.746 28.4398C146.746 28.035 146.7 27.6781 146.605 27.3689C146.507 27.0513 146.358 26.7815 146.153 26.5594H146.15Z" fill="white"/>
<path d="M151.072 29.224V32.1893C151.072 32.2764 151.023 32.3214 150.928 32.3214H149.95C149.862 32.3214 149.819 32.2792 149.819 32.1893V24.8112C149.819 24.7774 149.831 24.7493 149.852 24.7297C149.883 24.7016 149.917 24.6875 149.95 24.6875H152.171C152.984 24.6875 153.626 24.8702 154.096 25.2356C154.573 25.5982 154.811 26.1659 154.811 26.9361C154.811 27.3071 154.744 27.6387 154.603 27.9282C154.472 28.2121 154.283 28.451 154.032 28.645C153.791 28.8333 153.5 28.9794 153.161 29.0806C152.831 29.1734 152.468 29.2212 152.074 29.2212H151.072V29.224ZM151.072 25.7528V28.1728H151.964C152.456 28.1728 152.844 28.0772 153.131 27.8889C153.418 27.6921 153.558 27.3745 153.558 26.9276C153.558 26.5426 153.445 26.2531 153.216 26.0563C152.99 25.8539 152.691 25.7528 152.324 25.7528H151.072Z" fill="white"/>
<path d="M156.201 32.3186C156.165 32.3186 156.131 32.3045 156.1 32.2792C156.079 32.2595 156.067 32.2314 156.067 32.1977V24.8112C156.067 24.7774 156.079 24.7493 156.1 24.7297C156.131 24.7016 156.162 24.6875 156.201 24.6875H157.191C157.228 24.6875 157.255 24.7016 157.28 24.7297C157.307 24.7493 157.323 24.7774 157.323 24.8112V31.2561H160.173C160.262 31.2561 160.305 31.3011 160.305 31.3882V32.1977C160.305 32.2314 160.289 32.2567 160.262 32.2792C160.24 32.3045 160.21 32.3186 160.173 32.3186H156.204H156.201Z" fill="white"/>
<path d="M167.216 32.3157C167.164 32.3157 167.127 32.3101 167.106 32.2961C167.084 32.2905 167.063 32.2623 167.042 32.2146L166.25 30.3932H162.663L161.872 32.2146C161.857 32.2623 161.838 32.2876 161.817 32.2961C161.796 32.3101 161.759 32.3157 161.707 32.3157H160.696C160.561 32.3157 160.519 32.268 160.561 32.1752L163.772 24.7999C163.794 24.7437 163.809 24.7156 163.818 24.7072C163.834 24.6959 163.876 24.6875 163.95 24.6875H164.973C165.037 24.6875 165.077 24.6959 165.092 24.7072C165.108 24.7128 165.126 24.7437 165.147 24.7999L168.358 32.1752C168.395 32.268 168.352 32.3157 168.227 32.3157H167.216ZM163.113 29.3308H165.786L164.454 26.2137L163.113 29.3308Z" fill="white"/>
<path d="M174.316 32.3226C174.258 32.3226 174.215 32.3114 174.185 32.2917C174.154 32.272 174.118 32.227 174.075 32.1596L170.622 26.6956V32.1596C170.622 32.227 170.61 32.272 170.589 32.2917C170.567 32.3114 170.518 32.3226 170.445 32.3226H169.535C169.474 32.3226 169.431 32.3114 169.4 32.2917C169.37 32.272 169.357 32.227 169.357 32.1596V24.863C169.357 24.7815 169.373 24.7337 169.4 24.7112C169.431 24.6831 169.486 24.6719 169.565 24.6719H170.576C170.635 24.6719 170.677 24.6831 170.708 24.7028C170.738 24.7168 170.775 24.7618 170.818 24.8349L174.273 30.2905V24.8349C174.273 24.7674 174.283 24.7253 174.304 24.7028C174.325 24.6831 174.374 24.6719 174.448 24.6719H175.361C175.434 24.6719 175.48 24.6831 175.492 24.7028C175.514 24.7253 175.526 24.7674 175.526 24.8349V32.1315C175.526 32.213 175.511 32.2636 175.48 32.2833C175.459 32.3085 175.407 32.3226 175.327 32.3226H174.313H174.316Z" fill="white"/>
<path d="M50.2523 10.1523H43.2649C42.8952 10.1523 42.5866 10.1326 42.3391 10.0876C42.1069 10.0455 41.9236 9.97518 41.7831 9.874C41.6578 9.76157 41.5753 9.60417 41.5264 9.40742C41.4806 9.21067 41.4592 8.9549 41.4592 8.6401V0.913478C41.4592 0.643651 41.5998 0.508741 41.8747 0.508741H44.212C44.5206 0.508741 44.6764 0.643651 44.6764 0.913478V3.12831H48.8194V0.893806C48.8194 0.609925 48.966 0.469387 49.2593 0.469387H51.5722C51.8808 0.469387 52.0366 0.612735 52.0366 0.893806V4.27789H55.3913V0.404742C55.3913 0.219235 55.4401 0.10681 55.5318 0.0646492C55.6235 0.0224887 55.7396 0 55.8801 0H58.1685C58.3701 0 58.4862 0.0421624 58.5168 0.129294C58.5626 0.199562 58.5871 0.292314 58.5871 0.404742V10.2169C58.5871 10.4867 58.4404 10.6216 58.1471 10.6216H55.8312C55.5379 10.6216 55.3913 10.4952 55.3913 10.2394V6.70634H52.0366V8.70756C52.0366 9.24721 51.9113 9.62104 51.6638 9.83465C51.4316 10.0483 50.9642 10.1523 50.2523 10.1523ZM56.7997 20.0487H46.5249C46.1552 20.0487 45.8527 20.0291 45.6236 19.9869C45.3914 19.9447 45.208 19.866 45.0675 19.7536C44.9453 19.6524 44.8506 19.5063 44.7895 19.3067C44.7436 19.11 44.7192 18.8458 44.7192 18.5197V12.2209C44.7192 11.9652 44.8659 11.8387 45.1592 11.8387H47.4506C47.6217 11.8387 47.7439 11.8668 47.8203 11.923C47.8967 11.9652 47.9364 12.0663 47.9364 12.2209V13.7753H55.3638V12.1366C55.3638 11.9792 55.4035 11.8752 55.4799 11.819C55.5562 11.7628 55.6632 11.7347 55.8037 11.7347H58.1654C58.3029 11.7347 58.4068 11.7628 58.4649 11.819C58.5412 11.8752 58.581 11.982 58.581 12.1366V18.5872C58.581 19.1409 58.4649 19.5231 58.2357 19.7368C58.0188 19.9476 57.5391 20.0544 56.7997 20.0544V20.0487ZM55.3638 16.1334H47.9364V17.4545C47.9364 17.5809 48.0128 17.6456 48.1686 17.6456H55.1346C55.2874 17.6456 55.3638 17.5809 55.3638 17.4545V16.1334ZM48.8163 5.4893H44.6734V7.46804C44.6734 7.6676 44.7895 7.76597 45.0186 7.76597H48.465C48.6972 7.76597 48.8133 7.6676 48.8133 7.46804V5.4893H48.8163Z" fill="white"/>
<path d="M77.8413 8.78743H66.2252C65.8708 8.78743 65.5836 8.77337 65.3697 8.74246C65.1528 8.7003 64.9817 8.63003 64.8595 8.52884C64.7342 8.41642 64.6517 8.26745 64.6028 8.08194C64.557 7.8852 64.5356 7.62099 64.5356 7.29495V1.78035C64.5356 1.48242 64.557 1.24069 64.6028 1.058C64.6639 0.872492 64.7587 0.731956 64.8809 0.630771C65.0184 0.532396 65.1895 0.467752 65.3911 0.439645C65.5927 0.397484 65.8311 0.375 66.1091 0.375H77.8383C78.1621 0.375 78.4249 0.389052 78.6265 0.417159C78.8282 0.445266 78.9809 0.50991 79.0909 0.608284C79.2131 0.706659 79.2987 0.850008 79.3445 1.0327C79.3903 1.21821 79.4148 1.46555 79.4148 1.77754V7.29214C79.4148 7.60413 79.3903 7.8599 79.3445 8.05946C79.2987 8.25902 79.2131 8.41361 79.0909 8.52604C78.984 8.62722 78.8282 8.69749 78.6265 8.73965C78.4249 8.77057 78.1652 8.78462 77.8383 8.78462L77.8413 8.78743ZM81.9171 13.1103H73.5853V19.8363C73.5853 20.1202 73.4326 20.2607 73.124 20.2607H70.8325C70.524 20.2607 70.3712 20.1202 70.3712 19.8363V13.1103H62.0425C61.8409 13.1103 61.7095 13.0681 61.6484 12.9838C61.6026 12.8995 61.5781 12.7786 61.5781 12.6212V11.1512C61.5781 10.9938 61.5995 10.8814 61.6484 10.8111C61.7095 10.7268 61.8409 10.6818 62.0425 10.6818H81.9171C82.2409 10.6818 82.4028 10.8364 82.4028 11.1484V12.6184C82.4028 12.9445 82.2409 13.1075 81.9171 13.1075V13.1103ZM76.2465 3.211C76.2465 3.02549 76.2251 2.91306 76.1762 2.8709C76.1456 2.81469 76.0387 2.78658 75.8523 2.78658H68.1714C67.9697 2.78658 67.8384 2.80907 67.7773 2.85123C67.7314 2.89339 67.707 3.01425 67.707 3.21381V5.95986C67.707 6.15942 67.7314 6.28028 67.7773 6.32244C67.8384 6.3646 67.9697 6.38709 68.1714 6.38709H75.8523C76.0387 6.38709 76.1456 6.3646 76.1762 6.32244C76.222 6.26623 76.2465 6.14537 76.2465 5.95986V3.21381V3.211Z" fill="white"/>
<path d="M93.7257 10.1523H86.7383C86.3686 10.1523 86.06 10.1326 85.8125 10.0876C85.5803 10.0455 85.397 9.97518 85.2565 9.874C85.1343 9.76157 85.0487 9.60417 85.0029 9.40742C84.9571 9.21067 84.9326 8.9549 84.9326 8.6401V0.913478C84.9326 0.643651 85.0701 0.508741 85.3481 0.508741H87.6854C87.994 0.508741 88.1498 0.643651 88.1498 0.913478V3.12831H92.2928V0.893806C92.2928 0.609925 92.4394 0.469387 92.7327 0.469387H95.0456C95.3541 0.469387 95.5069 0.612735 95.5069 0.893806V4.27789H98.8616V0.404742C98.8616 0.219235 98.9074 0.10681 98.9991 0.0646492C99.0907 0.0224887 99.2068 0 99.3443 0H101.636C101.837 0 101.95 0.0421624 101.984 0.129294C102.03 0.199562 102.054 0.292314 102.054 0.404742V10.2169C102.054 10.4867 101.908 10.6216 101.614 10.6216H99.3016C99.0082 10.6216 98.8616 10.4952 98.8616 10.2394V6.70634H95.5069V8.70756C95.5069 9.24721 95.3847 9.62104 95.1372 9.83465C94.905 10.0483 94.4345 10.1523 93.7257 10.1523ZM100.273 20.0487H90.0013C89.6316 20.0487 89.3292 20.0291 89.097 19.9869C88.8648 19.9447 88.6814 19.866 88.5439 19.7536C88.4187 19.6524 88.327 19.5063 88.2659 19.3067C88.2201 19.11 88.1987 18.8458 88.1987 18.5197V12.2209C88.1987 11.9652 88.3454 11.8387 88.6387 11.8387H90.9271C91.0951 11.8387 91.2204 11.8668 91.2967 11.923C91.3731 11.9652 91.4128 12.0663 91.4128 12.2209V13.7753H98.8402V12.1366C98.8402 11.9792 98.8799 11.8752 98.9563 11.819C99.0327 11.7628 99.1396 11.7347 99.2802 11.7347H101.639C101.776 11.7347 101.877 11.7628 101.938 11.819C102.015 11.8752 102.054 11.982 102.054 12.1366V18.5872C102.054 19.1409 101.938 19.5231 101.706 19.7368C101.489 19.9476 101.013 20.0544 100.27 20.0544L100.273 20.0487ZM98.8402 16.1334H91.4128V17.4545C91.4128 17.5809 91.4892 17.6456 91.645 17.6456H98.608C98.7638 17.6456 98.8402 17.5809 98.8402 17.4545V16.1334ZM92.2928 5.4893H88.1529V7.46804C88.1529 7.6676 88.269 7.76597 88.4981 7.76597H91.9475C92.1767 7.76597 92.2928 7.6676 92.2928 7.46804V5.4893Z" fill="white"/>
<path d="M123.145 14.4301H120.808C120.64 14.4301 120.523 14.402 120.462 14.3458C120.401 14.2756 120.371 14.1603 120.371 14.0057V0.404742C120.371 0.134914 120.517 0 120.811 0H123.148C123.426 0 123.563 0.134914 123.563 0.404742V14.0282C123.563 14.1828 123.533 14.2896 123.472 14.3458C123.426 14.402 123.316 14.4301 123.148 14.4301H123.145ZM111.877 11.195C111.043 11.195 110.279 11.0685 109.586 10.8128C108.892 10.557 108.29 10.2029 107.78 9.75033C107.27 9.28094 106.876 8.7441 106.601 8.13136C106.323 7.50739 106.185 6.83282 106.185 6.10766C106.185 5.42747 106.323 4.78101 106.601 4.17109C106.879 3.54711 107.273 3.00183 107.78 2.53245C108.29 2.06306 108.892 1.69486 109.586 1.42503C110.279 1.14115 111.043 1.00061 111.877 1.00061C112.711 1.00061 113.505 1.14115 114.211 1.42503C114.923 1.69486 115.531 2.06306 116.041 2.53245C116.564 3.00183 116.967 3.54711 117.245 4.17109C117.538 4.78101 117.685 5.42747 117.685 6.10766C117.685 6.83001 117.538 7.50458 117.245 8.13136C116.967 8.74129 116.567 9.28094 116.041 9.75033C115.531 10.2029 114.923 10.557 114.211 10.8128C113.502 11.0685 112.723 11.195 111.877 11.195ZM123.796 20.0712H111.648C111.309 20.0712 111.031 20.0431 110.814 19.9869C110.615 19.9447 110.45 19.8604 110.328 19.7311C110.206 19.6018 110.12 19.4388 110.071 19.2421C110.026 19.0425 110.001 18.7952 110.001 18.4972V13.6853C110.001 13.3874 110.157 13.2384 110.465 13.2384H112.757C113.066 13.2384 113.221 13.3874 113.221 13.6853V17.3055C113.221 17.5191 113.344 17.6259 113.591 17.6259H123.796C123.918 17.6259 124.025 17.6484 124.119 17.6878C124.214 17.7468 124.257 17.8508 124.257 18.0082V19.689C124.257 19.8885 124.211 20.001 124.119 20.0291C124.028 20.0572 123.918 20.0712 123.796 20.0712ZM111.877 3.57521C111.507 3.57521 111.159 3.63986 110.835 3.76634C110.527 3.89564 110.249 4.07833 110.001 4.32005C109.769 4.54772 109.586 4.82317 109.445 5.14921C109.323 5.4612 109.259 5.80129 109.259 6.1723C109.259 6.54332 109.32 6.88903 109.445 7.21507C109.583 7.52706 109.769 7.80532 110.001 8.04704C110.249 8.27471 110.524 8.45178 110.835 8.57826C111.159 8.70756 111.507 8.76939 111.877 8.76939C112.647 8.76939 113.282 8.52767 113.774 8.04423C114.285 7.54674 114.538 6.92276 114.538 6.1723C114.538 5.42185 114.285 4.80349 113.774 4.32005C113.282 3.82256 112.647 3.57521 111.877 3.57521Z" fill="white"/>
<path d="M153.591 10.3H145.216V12.3631C145.216 12.4952 145.186 12.6188 145.161 12.7453C145.137 12.8718 145.106 12.9927 145.076 13.1079C145.323 13.6897 145.699 14.2294 146.209 14.7269C146.732 15.2103 147.318 15.6432 147.966 16.0254C148.614 16.3936 149.301 16.7056 150.025 16.9614C150.752 17.2171 151.437 17.4083 152.084 17.5376C152.301 17.5797 152.418 17.6359 152.433 17.7062C152.463 17.7905 152.448 17.9058 152.387 18.0463L151.626 19.8142C151.531 20.0279 151.302 20.0897 150.93 20.0054C150.297 19.8761 149.643 19.6849 148.962 19.432C148.299 19.1903 147.642 18.8923 146.994 18.5382C146.362 18.1981 145.766 17.8018 145.213 17.3464C144.657 16.908 144.171 16.4302 143.756 15.9214C143.001 16.9305 141.987 17.7849 140.725 18.496C139.475 19.2212 138.018 19.7861 136.353 20.1993C136.136 20.2555 135.989 20.2696 135.913 20.2415C135.852 20.2134 135.797 20.1431 135.751 20.0278L134.966 18.2824C134.856 18.0547 134.972 17.9002 135.311 17.813C137.376 17.2593 138.99 16.5089 140.148 15.556C141.302 14.606 141.95 13.4564 142.091 12.1073V10.2972H133.716C133.53 10.2972 133.408 10.2691 133.347 10.2129C133.285 10.1426 133.255 10.0274 133.255 9.86998V8.33814C133.255 8.1695 133.276 8.04864 133.325 7.97556C133.371 7.90529 133.502 7.86875 133.719 7.86875H147.508C147.523 7.86875 147.529 7.86313 147.529 7.84908C147.59 7.53709 147.654 7.16045 147.715 6.72198C147.777 6.2807 147.832 5.85067 147.877 5.42344C147.923 4.99903 147.954 4.61396 147.969 4.27387C148 3.91972 148.018 3.678 148.018 3.5487C148.018 3.33509 147.984 3.18612 147.923 3.1018C147.862 3.00343 147.685 2.95284 147.392 2.95284H136.933C136.778 2.95284 136.655 2.93878 136.564 2.91067C136.487 2.86851 136.448 2.75609 136.448 2.57058V0.909454C136.448 0.754865 136.487 0.653681 136.564 0.61152C136.655 0.569359 136.781 0.546875 136.933 0.546875H149.543C150.099 0.546875 150.508 0.659301 150.768 0.886968C151.03 1.10058 151.162 1.47722 151.162 2.01687C151.162 2.39913 151.147 2.82635 151.116 3.29293C151.101 3.74826 151.067 4.22889 151.021 4.74044C150.975 5.25199 150.911 5.77759 150.835 6.31443C150.774 6.84003 150.688 7.3572 150.581 7.86875H153.591C153.915 7.86875 154.077 8.02615 154.077 8.33814V9.86998C154.077 10.0414 154.031 10.1539 153.936 10.2129C153.844 10.2691 153.728 10.2972 153.591 10.2972V10.3Z" fill="white"/>
<path d="M172.689 20.3312H159.777C159.438 20.3312 159.16 20.3031 158.943 20.2469C158.742 20.2047 158.58 20.126 158.458 20.0136C158.348 19.9152 158.271 19.7719 158.225 19.5863C158.195 19.4177 158.18 19.2041 158.18 18.9483V16.2219C158.18 15.9521 158.195 15.7329 158.225 15.5614C158.271 15.39 158.348 15.2551 158.458 15.1567C158.58 15.0414 158.745 14.9656 158.943 14.9206C159.142 14.8784 159.414 14.8587 159.753 14.8587H169.194C169.331 14.8587 169.402 14.78 169.402 14.6226V14.1533C169.402 13.9846 169.325 13.8975 169.169 13.8975H158.595C158.427 13.8975 158.302 13.8694 158.225 13.8132C158.164 13.757 158.134 13.6445 158.134 13.4731V12.0256C158.134 11.7557 158.29 11.6208 158.595 11.6208H170.905C171.598 11.6208 172.047 11.7276 172.246 11.9384C172.448 12.138 172.549 12.4921 172.549 13.0037V15.6654C172.549 15.9493 172.527 16.1826 172.478 16.3681C172.448 16.5367 172.377 16.6745 172.27 16.7728C172.164 16.8712 172.002 16.9359 171.785 16.964C171.568 17.0061 171.29 17.0258 170.951 17.0258H161.58C161.427 17.0258 161.348 17.0961 161.348 17.2394V17.8128C161.348 17.9674 161.43 18.0461 161.601 18.0461H172.665C172.833 18.0461 172.958 18.0686 173.034 18.1107C173.111 18.1529 173.15 18.2653 173.15 18.4508V19.8983C173.15 20.1822 172.995 20.3227 172.686 20.3227L172.689 20.3312ZM172.805 6.96348H157.95C157.611 6.96348 157.443 6.80046 157.443 6.47442V5.02691C157.443 4.75708 157.611 4.62217 157.95 4.62217H160.334V2.53663H158.366C158.012 2.53663 157.834 2.37923 157.834 2.06724V0.642213C157.834 0.484814 157.88 0.372388 157.972 0.302121C158.082 0.231853 158.213 0.195312 158.366 0.195312H172.411C172.735 0.195312 172.897 0.344279 172.897 0.642213V2.08972C172.897 2.38766 172.735 2.53663 172.411 2.53663H170.422V4.62217H172.805C173.144 4.62217 173.315 4.75708 173.315 5.02691V6.49691C173.315 6.80889 173.144 6.96348 172.805 6.96348ZM175.304 10.4122H155.451C155.234 10.4122 155.103 10.3757 155.057 10.3054C155.011 10.2351 154.987 10.1199 154.987 9.9625V8.51499C154.987 8.35759 155.017 8.24516 155.078 8.1749C155.14 8.10463 155.265 8.06809 155.448 8.06809H175.301C175.439 8.06809 175.555 8.10463 175.647 8.1749C175.741 8.23111 175.787 8.34354 175.787 8.51499V9.9625C175.787 10.2604 175.625 10.4094 175.301 10.4094L175.304 10.4122ZM163.505 4.62217H167.254V2.53663H163.505V4.62217Z" fill="white"/>
<path d="M196.001 14.4723H193.709C193.541 14.4723 193.425 14.4442 193.361 14.388C193.3 14.3318 193.269 14.225 193.269 14.0676V8.36184H191.604V13.6207C191.604 13.7781 191.574 13.8849 191.513 13.9411C191.451 13.9832 191.335 14.0029 191.164 14.0029H188.989C188.818 14.0029 188.696 13.9804 188.619 13.9411C188.558 13.8849 188.528 13.7781 188.528 13.6207V0.764511C188.528 0.593059 188.558 0.480633 188.619 0.424419C188.696 0.368205 188.818 0.340097 188.989 0.340097H191.164C191.458 0.340097 191.604 0.48063 191.604 0.764511V5.95869H193.269V0.404742C193.269 0.134914 193.425 0 193.734 0H196.001C196.172 0 196.285 0.0281079 196.346 0.0843219C196.41 0.140536 196.438 0.247343 196.438 0.404742V14.0704C196.438 14.225 196.407 14.3318 196.346 14.3908C196.285 14.447 196.172 14.4751 196.001 14.4751V14.4723ZM196.532 20.0712H183.205C182.881 20.0712 182.613 20.0431 182.396 19.9869C182.197 19.9447 182.032 19.8661 181.91 19.7536C181.8 19.6412 181.723 19.4838 181.678 19.287C181.632 19.0875 181.61 18.8401 181.61 18.5422V14.2222C181.61 13.9242 181.763 13.7753 182.072 13.7753H184.339C184.663 13.7753 184.828 13.9242 184.828 14.2222V17.328C184.828 17.5416 184.95 17.6484 185.197 17.6484H196.535C196.658 17.6484 196.768 17.6681 196.859 17.7102C196.954 17.7665 197 17.8733 197 18.0307V19.689C197 19.8885 196.954 20.001 196.859 20.0319C196.768 20.06 196.661 20.074 196.535 20.074L196.532 20.0712ZM187.208 11.6644C186.731 11.7628 186.175 11.8555 185.543 11.9427C184.91 12.0129 184.247 12.0776 183.554 12.1338C182.86 12.176 182.157 12.2041 181.448 12.2181C180.755 12.2322 180.101 12.2237 179.481 12.1985C178.833 12.1703 178.378 12.0495 178.118 11.8359C177.871 11.6082 177.749 11.2259 177.749 10.6863V6.61921C177.749 6.16668 177.855 5.85188 178.072 5.68324C178.289 5.49773 178.644 5.40779 179.139 5.40779H182.863C183.001 5.40779 183.086 5.39374 183.117 5.36563C183.162 5.32347 183.187 5.23915 183.187 5.10986V3.81132C183.187 3.68202 183.166 3.60613 183.117 3.57803C183.086 3.53587 183.001 3.51338 182.863 3.51338H178.35C178.042 3.51338 177.889 3.37847 177.889 3.10864V1.48967C177.889 1.33508 177.92 1.2339 177.981 1.19174C178.057 1.13553 178.179 1.10742 178.35 1.10742H184.69C185.029 1.10742 185.295 1.14396 185.5 1.19174C185.714 1.24233 185.879 1.3126 185.986 1.42503C186.096 1.54027 186.157 1.68923 186.193 1.87193C186.233 2.05744 186.264 2.29072 186.264 2.5746V6.14982C186.264 6.74569 186.132 7.15043 185.869 7.36404C185.622 7.57485 185.222 7.68165 184.666 7.68165H181.125C180.926 7.68165 180.825 7.77441 180.825 7.95991V9.59855C180.825 9.78406 180.941 9.874 181.173 9.874C182.206 9.90211 183.172 9.88243 184.064 9.81216C184.974 9.7419 185.9 9.62104 186.841 9.44958C187.009 9.41867 187.125 9.43553 187.189 9.49174C187.25 9.54796 187.296 9.63228 187.327 9.74752L187.559 11.1725C187.62 11.4424 187.504 11.6054 187.214 11.6616L187.208 11.6644Z" fill="white"/>
<path d="M0 9.07812V32.2522H5.71436H8.45578V27.0103H5.71436V14.32H23.6161V9.07812H5.71436H2.02958H0Z" fill="white"/>
<path d="M15.2194 15.8438V32.2587H9.44653V15.8438H15.2194Z" fill="white"/>
<path d="M9.44653 0.390625V5.63251V8.14617H15.1628V5.63251H27.3464V18.3228H26.2603V23.5647H27.3464H30.2033H33.0626V0.390625H30.2033H27.3464H9.44653Z" fill="white"/>
<path d="M16.7937 18.25V23.4155H19.5136V27.0855H16.7937V32.251H22.8009H25.1905V23.4155V21.9199V18.25H16.7937Z" fill="white"/>
</svg>
